<mxfile host="app.diagrams.net" agent="Mozilla/5.0 (Windows NT 10.0; Win64; x64) AppleWebKit/537.36 (KHTML, like Gecko) Chrome/134.0.0.0 Safari/537.36" version="26.1.1">
  <diagram name="第 1 页" id="MNBX0AUWymw4bVLf5R3T">
    <mxGraphModel dx="1050" dy="522" grid="1" gridSize="10" guides="1" tooltips="1" connect="1" arrows="1" fold="1" page="1" pageScale="1" pageWidth="827" pageHeight="1169" math="0" shadow="0">
      <root>
        <mxCell id="0" />
        <mxCell id="1" parent="0" />
        <mxCell id="RpYRkauJq-apALAoT7bk-1" value="" style="shape=image;verticalLabelPosition=bottom;labelBackgroundColor=default;verticalAlign=top;aspect=fixed;imageAspect=0;image=data:image/png,iVBORw0KGgoAAAANSUhEUgAAAgAAAAIACAYAAAD0eNT6AAAAIGNIUk0AAHomAACAhAAA+gAAAIDoAAB1MAAA6mAAADqYAAAXcJy6UTwAAAAEZ0FNQQAAsY58+1GTAAAAAXNSR0IArs4c6QAAAAZiS0dEAP8A/wD/oL2nkwAAAAlwSFlzAAAOxAAADsQBlSsOGwAAIABJREFUeNrt3Q+0XlV55/GHP2WllsXKsDL0LifLuYMZSdtUI0QGNepFgwaIGiRAxESCoEA1AxQYpIhAkQEWIDCRAQYoYYACJSzCIpQwhBL+yB8NEjRqhGBvbdSURielKWZopLN/7P2Sm3Bv8t5733PeZ+/z/az1rIAg99z97vec5+z97L3NAAAAAAAAAAAAAAAAAAAAAAAAAAAAAAAAAAAAAAAAAAAAAAAAAAAAAAAAAAAAAAAAAAAAAAAAAAAAAAAAAAAAAAAAAAAAAAAAAAAAAAAAAAAAAAAAAAAAAAAAAAAAAAAAAAAAAAAAAAAAAAAAAAAAAAAAAAAAAAAAAAAAAAAAAAAAAAAAAAAAAAAAAAAAAAAAAAAAAAAAAAAAAAAAAAAAAAAAAAAAAAAAAAAAAAAAAAAAAAAAAAAAAAAAAAAAAAAAAAAAAKBdO9EEQCPsHmJi+rMnxJgBf7ZsCrFuwJ8bQ6xOfwIgAQDgWG+IKSEmhdgvPeRbD/6RUgKwKsT6ECtDPBtiRYi1NDdAAgCgO/SAnxHigyGmp7+vi0YJFod4Pv25jo8DIAEAUJ0p6aF/aPprL54OcX+IJWmkAAAJAIBR0pD+Mektf1IG17sqJQI3hljDxweQAABonwr0ZqUHf1+IXTP9PZaFuNriNAEAEgAAQ1DB3vEhTgsxvqDfqz/EVSGutbjSAAAJAIBgbIhTQpyc/rpUWk1wfogbSAQAEgCgyTTU/5X04B/foN9bywgvIREASACAJpoX4iKrd/mex0TgJItFgwBIAICi9YU4N/2JaGmIMyyuIABAAgAURXP7F4Q40fKt6q/S5hCXWawRYFoAIAEAiqDNe663Zg/3t0tnEGhaYDlNAVRjF5oAqJyK/DTPf2WIPWiOtoyzWB/x2xBPhnidJgEYAQByMjnEPRYP6cHIRwM+aewoCDACAGRCa/pvCbEXTTHq0YAvhPilccYAQAIAOKad/G4OcXqI3WiOjlA7zrRYP/GgMSUAkAAAzvSGeNRY3lcVnX74gRCPhHiF5gBIAAAPplk8DreXpqjU3iGODPFQiJdpDoAEAOimORbn+/ekKWqh1RRHh3jG4iFDAEgAgNpprn+BxeV+qI/ae3aIl4zdAwESAKBm14T4sxA70xRdod0UZ4X4eYjv0RwACQBQh7tCfJ5mcOFTIf7F4qZBAEgAgMreOq+zOO8PPz4e4lchvkNTACQAQBVu483frUNIAgASAKAKl4b4Es3gPgn4YYgf0RQACQDQqYf/6TRDFo4kCQBIAIBO0IP/PJohKyoM/LaxTwBAAgCM0LwQVxlL/XKjYk2dH/BwiF/QHAAJADAcMywW/e1KU2RJmwVpOuDuEL+mOQASAKAdEy3u7f82miL7JOCjFrdqfo3mAEgAgO3Rkb4aOh5PUxRhrxD7W9y8aTPNAZAAAEO5M8RUmqEoOkVwksXpgNdpDpAAANiW9vdnl78yaVrnX0M8RlOABADAQCcay/1Kp3oAHSO8hqZAk7GsCdhCQ/5X0AyNcFOIHpoBTbYTTQC8QQ+D5xryUOgP8XSITSHWhfh/FkcDVfA4NsQUa0bx4xMhDkrtAJAAAA31QIjpBT/oloe4N8RKa68KfteUCBye2mVSoW1zWYgz6P4gAQCa6bwQ5xb2O62wWO1+a4i1HfjvTQhxTIhZFgvpSnJwiKV8DUACADSLHmbftbjuvwTLQpxjcYi/KhoRuCjE5ELaTNMg701/Ao3BKgA0mYa5HwzxjgJ+Fz3wPxviwg698W+PquevC/G8xWmCPTNvOyV/muLQ3g/sDwASAKABvh5idua/w/oQXw4xP8TPav7Zqy3umfAbiysocj4vQVMcv7Q4dQKQAAAF6wtxveW9FHaRxfnrJ7t4DXpjVpHh3Zb/6gFNbdwT4mW+HiABAMqkw2FU9T8u0+vfEGJuiPNDvOrkmjQScXMaDejLNLHSNe+bfg+mAkACABToFMt36F/L+D5pcVmfN63RgMctHqOc4ymKGsF4McT3+ZqABAAoi+Z6bw+xW4bXriV9R1n9c/3D1Z/a+MMh3p5hO2urYE1p/JqvC0gAgHLcm5KA3Fwc4mTzM+S/I6+kJGDfDNtbU0R/GOIWvi4gAQDKoE1sTs/wuk8KcYnlNy/9msWldVpmmdueATo6+NkQL/C1AQkAkDcV/N1neW34oy17jwtxQ8btrqRFoy46Y+CAzK5dUwEqCHyVrw9IAIB8aeOaD2R0vTqgRvvw/1Uh7a8Nl36bHqq5ULK4Z0ocARIAIEN68/ym5bU07bAQSwr7HB6zuFnQhzO65ndbrGWgIBDF2ZUmQEU05Kth9570JjVuwJ+/l/7cNf17Y7fzFjxwf/a16S1ybfpna9M/V2zYzrVcmlFf17D/3AIf/i06p0BFdrnUYqjfXGFx6eVQxg3o6+PT/6cn9fOeAX2vJ/3uQ9locT8FS3/+KvXt1veg1d83cnsBCQC6TTe0Xos7wP0Hi/up63+baPXPtW9ON8j+FPrrl9L1TM2oTXU07R2F95sz0oMyl70YtKfBBSn5/P3Up3rSQ3/8Dh7qVdiYEoFVKVH44YC/X23tHfcMcBog2qYHvYbS90sP/ClWzgl6Xmip31kN+V310NTc+jQ+9o4nB9osSodDPZv+7KdZQAKA4ZiYbs6Hpof9OJqkUhryP6xhb2+a+tFRzBP4+Cu1PiUCz4RYnEYKABIAvElv830hPp0e/L00SW30xnagbb+OoVSaNnqEBLNW6mdLQ9yfEgJqCkgA0EAahtX85uHpT4b066eb7x9YrFloKp3Cp+kAapLqtyklA9r6eElDk1ASADTurUtnyM/izavrPmnlVvwPh4rsvkYzdD0Z1YiA9szQlAHFhCQAKOhtf3Z68E+hOVxQwd/FNMOb7gkxk2ZwQdNS2sb5WkYFSACQr94Qc0KcYHHJEnxYFuJg3rK2otGo5+inrujhf1WIK0kEysNOgOVSZfXlFveRV1HfHjSJGxpqPYgb6ltoz/0fp4QVPmjksC/EiSF+N40MbKJZGAGAT9qg5Oz0haWoyq+1aRRAw6zLG35TVfGpilAPTX+OpXu4HhG40OLUAKsHSADghB72p6SHPzfQvGid9hMpGVjSkBvrWNuyAkU7NVKMml8C24RdK0kA4F5fiAUWq/uRt1Yl9t1phKCkZKD1pn+UxWkplp3mb3mIkyxuQQwSANR8Q9VBN8cbw/0l2pBGBK5LIwQ52jUlqMdZXO/P6FR5VMh6mcWDnihqJQFADTRseg1v/Y2hIddFaWQgh2SgL73p642fqv5mUIHgselPkACgojeqc0N8lbf+xlqdkoGbQ6xxdF2TLc7pa78J9vdv7miARgLY34IEAB2mCv/b09sVoJutdmzTFMEd1p3hVy0T07I9DfFPISlFsjzEERYLXEECgFHSUL/2S++lKTAIFQveanHvhzpGBfS2f7LF7aQp5sNgNFL1SfM1SgUSgOxoHvUWo4AK7Y0KaBXBbRYLCDs5KqAH/fT0tj+Nt320QYWsh6URAZAAYJhOD3ERN1uMgAoHr7Y4PdA/iv/OxBDHWNxciiQUI0lKVRx4K01BAoD2nWex4A8YLY0GaE/3ZW3++0o4dTCPhvmn0nzogC9a3JocJADg4Y8uWJlGBTRNMFiBVm968OvUSCr5QRJAAoCa6Vz0C2gGVEhnD7SKBlent/wvp4f/GJoHFdJ0wEKagQQAb6Vd/bTBD3P+qEu/sboE9VFNgFYHLKUpuovjgH3RkqqbePijZhT2oU47W9ws6p4QL9McJACIm6joC8HwK4AmJAGHhLjX4lJBkAA0lnb4e9g4EhVAc2jkSftK3GgcIkQC0GB6859MMwBomHHpBeg+moIEoIm0yc/naQYADbVviJ+EWEVT1GtnmqCrNO9/Os0AoOEWpJEAkAA0gvZV1/7+VPwDaDpNBdxEM9SLKYDuOd/ipisAgLjz5Eshvk9TMAJQMhX8MfQPAFu71DhemhGAwt0eYm+aAQC2oof/niHupykYASjRnBB9NAMADErboXMQFQlAcbTLH4f8AMDQVBh9Kc1QT0Oj3sy2t4G/95oQ61Lo5LnfWjyKdqPFU+n019vuBDY+9c/9QnyFroOMqW9fHOLnqb+vS38O1t/HptD07ESL1fG9DbxvqEBay6RX0H1IAEpxcsG/28b0cNd588+nP1fb4GfODwfbI6OE+6zmtJ/uwHdhksUi4n3Sn/r7UovmzrV4aiBIALI3w8qa19IDf3mIZ9KN7YlB3mo64dN0HRTguA4kAOvTd275NvfwaSkR+JjF+qJSDhSbwSgACUApzizkob/Y4gle+rPqAzz0xnMAXQcF0FHf8ytIkvUdXJrisjQaoCTgmPQAzT0Z0H3zCLoPCUDOJmf+IFMGflWIO6zeU7tm0UdRiNbJd4trSNKXpFAyMDvEaRbrCXIdBVB9xFq6UOexD0A9zs40AdBN5IR0/dqd6/Waf74OSmK/BJRCyfM9Nf6810J8L8TVIZ4N8a4Qb8/wJfUfLU4xghGALDP/eZldswr4TrLRz1mORmso0xsN4d5gcd51It3bHY1WrUlvvt5MT/fczV342a1RAb1RX5PeqnNxlMVVFCAByM4My6dKd4PFecq6h/oHM9Np/1yS2sjSTVSfrwoVpxpbmHarzy4L8XD6bFpDxSoe81Z0Oy4ltcu63H/180+xuCdJDs+AyUYxIAlApnKpYtcQ27Hp7cmDw52203UD/loPm2tT7J6SgKPSmx5Hm1an37YUo2qUatMQn5PHzWQO73ICYKm9Lk7XcbvlsTrpcyQAJAC56bE8TvzTzeAcB2/9LWPM5/C/HvjLh/hnKr5qVWNbuv67jH0MOt3+c1OyuqO+qlGsixze46Y6uhY9UN+bkoAZzj97FQSf4egeVQS2Aq7WARkkWfpSneXsi6WH51iHbbWkzXaaF+J6Hv4dpymXBW0+RNemz8ubSc76hRLXwyzWtXj/7KfwFegsVgFUS8tv9nV8fSr0+x8Or+tMp+2m9vrFDm5St4X4bxZPNEPn7ZUSLI2uPWqx0n0ovxPiMw5/hxctVud7odU996X+6/l+9ZMQT/IVYAQgF56H/zXsfy3t1jatjBhqDlKjPCqq+rH5H0otxYnpQTprO/+ORgA2Obx2r/UtX7Tq9ykYjY/R7UkActFrfoeANU99jtNrm+q03YYaTlaF8ndDXGGsAqibRgFUZ/GIDV7IphUCyx1ed5/5nOIS1ViscXptarcxdHsSgBxMc3pdG1Om77WY5lCn13XnNn+vG9Gl6eE/me7e9QfDD0KcZ2+tubna4fV6LXJt3R/mOr0/jOG7RgKQiz9yel0q+vO8rabH4X8N/a8a8PcapXguxOnGShpPD4dz02jAwA2alqaRAG88Lw/W0kqv04N9dHUSgBx4rFjV8byeq301LOpxTfJtAx4y5w3ykIEfSs40KnOibdl1byn3h2G70GnitA9dnATAO914PA5VXWW+19FOd/pGvcjiks4fpLdM3vp9Uy2Gtrt93OKyu7sdXqOuy/N2vOtCfIvEiQQAwzfR/BWE6Qt9q/N28zgsqqH/k9PDZAJdOytK2p6yWJDrMfH1vmLkOoftNpEEnATAO48PioUWC3w885jd602Nuf68RwMudfr5/RfnbadaoWXOrmlXEnESABKA4Xswgzbji40mmZZBYulx+oRzNkgAXHuns+tZb/7P02YDHTRNDtvbeiyg7KXrkAAwAtA+LevxfojGB+k2aKADnF+fpgH6SQBIANA+b0NUz2TQZlPpNmigHBJfb6OHv0+3IQHwzNsKgFXO22uyMa+HZvK69HWgn3B/JQFA+7yt713jvL0OoMugwS8Lk5xfYz/3VxIAtM9bRr/aeXsx/48m8z79tZaPiAcV2uNtKFvHoXovAGR3r+5Qv1gY4t4QJxgrMbrlPc6vbx0jACQAaM8YvrzDoqN/2Ve//gf/HSEusS31ITruuC/EBUZBJiMAb32J4LlFAgA07uZXmuUh5tvghaH6Zx+yeCKjEoFJNFctlAD3ZJCsgwQA6CjO966HjjQ+1dpb0rU4xWyL2+gy5FrP92ApzQASADQJBYDVUgHo+RZPNBxuLYimCTQ1cGaI442lmlV/D0gAQAKAjhrLCEAj6Sz3c0LcYKObw92Y/juqFzjbOBipKhTCggSgkBsvCUB7NMc8ji7TUXrL17HPZ1ln55Q3pv/mzSGusLiBDTrH814YTAGRACDTBEC8FhhRANhZC9PbepXrtjWlcHB6YC3gzbWjiboSYo+7dnqb+tlMdyEB8Gydsy/NWKcJwH50lY5YGeIki4c+1UU/630hZqURAd4SOzMK4DEB8DZKx2oJEgDXvK2bnWA+dwNkBGD0N8ILbfTz/KOh4kIVr1EfMHofTJ+lN96ON99IVyEB8ExDsL3OEgBvxji9rhxoCPTK9PD3MOU0sD7ggjQqgOHzuiFWr7PrWUNXIQHwzFsdgMetRifT/0ZkuQ29kU+3aZTpCIs7Cl5j7PA4XJPSd2Kzw+vy5Fd0FRIAz7zNUXm8EXMC4PBoVOkMG9l6/m4kKX9scUpAUwMc39qe1smAKx1d0xiHIwAcTkQC4NrfObueXodt9Ed0k7bpoa8iv/UZXbOSlIst7ih4Ewlf2yY7SwB6zd/5Jv10ExIAz7zNUfWkL7KnLw7Lx3ZMlfanWr3V/Z2maYH3Wzxf4AqnyagnWhmz0NH1eEzcWAVAAuCax/nZPmc3FuaHt//2rAK/b1g5a541ErDMYm3AHD7ibL4XH+EFq1w70wSVddBNfJGHpOr/MXSTQWlJnebPz7PyNjzRaoG5Fk8c5CY+OG9bY3sbAeh3eG8lAcBWNjm8wXlac88xs4M/HDXPr132Vhf+u+pEwvdaXMrIrm5b06Y7XjZV6jF/S3VX0UVIAHLg7SauL7KX4UWG/7e2OL31X9uwhEf1DdpNcAVdwGWCrPMevE0TM3JEApCFZx1e0wwn1/EeuscbVMx0WIr+hrbBypQEzGc0YKtk3YNDHbbN83QPEoAceKzcPoobnBsLLQ6DL6Yp3vAti6MgDPGa7ePgGlSj08d9lQQAI7PK4RuNCow8HOzR5ARAm5hot7xjjeVM21qdkiJtK9zkQi8PS2QPMH+HAG2y8utjSAAKsd5hZ9V8Xrf3aVeB09iG9olF6QG3iK/HkFobCL2/wTf7XgfXcLjDdnmCrwcJQG5vNN50+4vdxBUAG9Ib/xGW125+3bQyJUvfauDv3uMgSZ7psF2YHiIByMqDDq9pmnV3CL5pw//a/EZFbgv5OgybhnxVHHiQNW+6pJv7AWjJ8HiHbfIwXwkSgNxu/h7N7uLPfmdDPnsNZevwHq3rZ+nS6L9HGg24o0G/czeXyp7gNBlkCoAEICv95nPY6hhGACq1Kr31X2YsbesUjQB81uKSySZMo/zHLv1cTT3McNgeevhv4GtAAsAoQGcewt3Y4lMbi0wr/PPWW6oK2FbS9SvR2jSp9M2DTuzSd3SG+SzSfZSu33m70ASV+50QRzu8Lp09fneNP08HwNxm5Z4BoJ3tvhziXGOv8jraWkcMvy3EBwr9Hcek74w2vnmhxp97dYh3OGyPM0P8gq5PApAbddo/NX9bamqOUSezvVrDz/pqiKtC7FboZ6y3/U+E+D8hXqfL10Lt/FCIb4f4eEpoS6N7xpEh/t7qGVHSiMOfO2yHdSkB4LtFApCd1ywOe/c6uy5N/7wY4nsV/5yvWTzattTppoUWl/fxdtIdPw1xZ4j9nb65duJ7qiV5P6/hu3qB+TuNUJaEuIuuTgKQq/9kPrfV3DvE9RVm1ueFOL/Qz1QFSV9MN83X6OJd9YrFKYGdLC5hKzHZ/FSIX4X4TkX/fe369xfmb6RSLjdqakgAMqaq5S85vDHtFeIRq+YgGiUWf1ro56kq/4+EeIyu7cry1J/1sHxbgb/fIekB/UgF/+3/arFI15vWXhAb6d4kALl62eJc3l4Or021ADdW8PA/vtDPUkf2HpU+U/jzsxC3WJzPLnFK4MMVJAH6791sPqv/ldRdQ7cmAcidhts9Vixrxy/tWLi2A/8tVS5rru7oAj8/vYFogxTVMzDk7/+zUhKgotOphSYBO6WHYycc6Thhv8iqr30gAUDlfhPiC06vbayNvsim9fD/VIGfnc50+Jj53dkRb6W6Fm0dq/XjWtte2pRAXwdHAu4zvwd0HWf1rFQiAUClNDQ5z+kX7Q9D3G8jr2RvPfxnFPi53WDxACWq/PPUH+L2EPuav5U4nRgJGG0SMMfxi8lSi9OJIAEowr8zn6sBLL0h3cPD/00qPpprcQiSIf+8aZXAzamvljYlMNokQEsoxzn93S4xhv9JAAp7GznF6bX9YUoAhlPcphvPvRark0v7nA4M8Td02aJoSuDZEJ8xn8vd6k4C9Pb/Jae/k5bZ6swSztIgASjGhjQC0Ovw2rRE8e3pjaDdN389/KcX9hnp0BEN+a+muxZJ2+qq6FW7B44t6PcabmGgEgaN3O3p9PfR1Nt9dFcSgNL8rvkdLp+Y3pJ+1sbD/64C3/y1xO9zxhK/0qmeQ+dSaFVOSUsF+4YxEvBnIWY5/l204mYdXZUEoDQ6G/5E83sozrst7qq2vd0BS6v213y/dvXTEj+GHJtBleVaKljagULtTAdo5ONOx/cgnfR4AV2UBKBEetjoON59nV6fpgGes6GHwLUpx5yCPg+9ZRwU4q/pmo3TOlDoXyxOCTQlCTjb+e+rEzUp/iMBKNYvzW/xjWgXtasHGQU4L8TpBX0OK9PD/0d0yUZ70uKpgodYOfsFfDglNk9u87/3hvhL81sEqTqpE4wjtUkACqY5yBnpbdsjDRH+o2198IhO9SvpYJ9FIT5tzPcj0qmCD1hcIVDK0cJ6y3/eth7NW2B+Rx9FxX/30B3rsTNN0DWXO78+rX/vGfDwL21OTmuMOWAEA+mQp6sK+51uty1Fx30hZju+1s0Ftj8JAIZ8A13r+Pr0FnSpxT3Czy2w/dfTBTGItYX9PmNSEnBAevv3vP+B7olr6IL1YQqgezS//m/mex29VgQcYmVtmtJyllHxj7fSuvh5hf1Ou6Xfqcf5dR5rbLnNCECDaN35BufXWOLDX5X/FBmhCSMAuXyPVZC7gu5HAtAkm1ISgPoTAGAwTA11x/k0AQlAE12SwShAaWhv0Df80Lz/EpqBBKCpN5xFNAM3edA/GoodOEkAGv8FYEkaN3jQP5pGSy9vpRlIAJqs36gF4AYP+kfzXM3bPwkA4sZAjALU459oAmwHhYD1WMfbPwkAtnwZrqQZarGWJgD9o+vO56WHBABbjwIw/Fg9hhxB/+guVf7fQDOQAGALPfzZC5s3PHTXz2mCylH5TwKAQWgagI1qeMMDSqVd/5j7JwHAEKMAF9IMlaLICzv6DqI6XyQJJwHA0DQ3xjB1dSg8AglAd2jHP/b8d2JXmsAlnREwP8Q9NEUluvH2oWNZp4YYb/FUNv39+vSw0Q1xNR9Lo/tHU9r1HJqBBAA7tjjE8hB9NEXHravx+zUzxDHpc9x9O//u6vR562yIfj6irmL0rRoXW5z/BwkA2nBGiKf4nLJ8w5sRYkGI3jb//YkpTrRYIHWGUQyKcmik63KagQQA7VuRHgbzaIpsjA1xS0oARmpOGjk4ycqqltYUyKdDHJASo56UjCnR0QjIvRbniHkDL/NlhtoKEgAM0znpYTKOpuiIKlcA6KH2QHqTH63dUyKhmoGLM2/zWSEuCjFhiHtQb4rpFkdNbk39vluJAA+qzloWYiHN4M8uNIF7r4T451G+UWKLl62azZb0Nvv4EA+50ZgW4rchHsuwrXtSEvP1EHu2+f/RyqTJIb5g8cyGblSMq0DzFL4qHaERns8aozousQwwD9caS2c80wPjPmt/vn+4LrA4LZDbw1+jITNH+P/XVMo1IU6ne3HvAglA051qLE/y6qshplT8M65JD9WcHv6TO/DfupS38WyptuMSmoEEAKP3hHF4hkd66z+zhp+ze3oY5mBBhx7+LVdYLBysC4l2ZxxrDP2TAKBjzrJ4ihZGrtM3pLMtTgHUQdMAE5y376wUnXaT1Ve0zENr9O4IsZRmIAFA56g6eT7N4ObtbpzVPzd/mvP2vaii/+5Ey68Oosn3qVNpBhIAdN7SlF2j+/pqfPsf+DM9t0eVIxQn0OWyoJcUNrEiAUBFTjXWKntweBd+pt6EJzltj0Mr/u+r0LKHbscLCkgAmmydMcTmweSG/dwdmVrxf181AAfQ7dzSIWbavZIiShIAVGyhlbVNbI66tTvjWKftMb6Gn8EIgF9zjYOsSABQG40CrKcZGpcAeN0WuqeQn4Hh03a/i2gGEgDUe8PdnWbomk1d+rmbG9wem+h2LrUOeAIJAGqg+dC7rP4qdGyxrmE/18N1MeLlk15EFtAMJACoh9ZbT6QZump9w37ujqwu5GdgZHRg2fE0AwkAqqXlUOyP3n3LuvAzNfz/hNP2eLCGxIeDZXzTKEAvzUACgGpoqO16q29bVAzt3i78zCccjwAstmrrE5YYNQDeaUryGpqBBADV0NGwk2kGF/Q2WvfZDLc5bg/toV9lJfhVdLksTA8xm2YgAUBnaej/KzSDG3rbrfO4Uz1gve/9oKWpVRQDXhZiJV0uG5oKYMkmCQA6SENrDP37stDqK0w7x/wPgevhf1aH/5saZTmfrpYV7VVxEc1AAoDOOD6NAGB0Op1AaRTgWKt+bf5yy2fnx4UpWemE/hAHh9hI183OPKt+e2iQABRPW79eSjN0RBXDkk938IE31ENwruW1x/o30kjAaK5Zb/4HWv11Fgxddw6jlo7tQhNk4Qoy6Y55xaopJlN1voY99+/wf3dDegj+NMO2Vps8FeLdw3yoKmn4XyGOsu5seqTPkWW2nbFXiH8O8SRNQQKA4ZuUboaM1nSGHi5VjaY8EOKfQkzr0OelordPhvgNx02dAAAcFUlEQVRRxu2txOXGEC+G2DMlAkO9Eephr6NkPxviFutevcNYEoCO+nCIm1PyDUcYmvHvJj6njr/dVelKi1MCqoIeac3G5vTfuTCNAJSQdN2aQg9X7Rs/PsWm9OBfk9rNwzQHUwCdpb0BtHz5WJqCBADtm20U/uVID7L3hTgxxJk2vJ3RtNmN5s5XFdo2SmiWZvDAQmfNC3G1sZMjCQDavglR+FcN7aZYR1X5tSFusDgloLfeT6S3y/Hpu7c+PRA11P9oejCu4eNx0T/QeSoIfL/lVcxKAoCuOD49KNB546y+ZWWb04NdcR5Nn03/QOdpNHOOxWWicIDCMr9v/2fSDCS+QGHONqZYSACwXQt4+68URV6gf3THhBDn0gwkABj6CzKPZmAEAF3DG2q1TuEFhwQAgzubB1TlKPLC9vweTVB5gsUUJwkAtqFjfufQDJWjyAv0j+7SEtkJNAMJAHj7ZwQA9I9m2TXd70ACAItLZGbSDLzhgf7RENrobCzNQAKAuOkPb//1YI4XjAB0n2oBWBFAAtB4fSlQD5Z5gREAH1QLwIoAEoBGO5kmIAEA/aOhowCsCCABaCxV/s+gGWrFvCOGsruxD0Dd5vGdJAFoKs2BMffPGx58YPi/O0nXKTQDCUDTTODtvyuYcwR9w5djjJEXEgDe/l3RUbX9hbY9Q45o0gjACufX12uxIBAkAI2gYWjv6/7PCXGgxXPrudGjCUpMDFek7/HCDEYBmA4lAWiE4833euOnQ1ybRgAOKjAJmEgXxCDeWdjvszLEwSE2hjgjxDrH16qC6Kl0wfrsQhN0hea67jbfc15zQ/w0/bVuGg+FmBXibYV8Bh8P8VSIn9EdkWgI+s8LegvV9/ZDIV5Of/9qiN8JMc3xNWtk9Da6IglAyfQg9XzozyKLOxNuezN5JMTRIXYr4DNQIvP5EH+f3pLQbFeE+EZBD3/V72jkbs02//vT6Tu8p9Pr7g1xe4hf0yVJAEq1IHV0jzaFODTEK4P8s1+E+FuLtQslTB/tnH4XjcQ8TLdsJE3D3Z2SwVK0Hv7fG+SfvZ6+w0c7/k6+yveRBKBUmnu+2PED9LIQ92znn69Kb80zrJwakqkpNM2xkS7aGJpzfjDEBwp8+G+v6v8Fi9MA73D6O2h59FUpWQEJQFHONL+FLnr4HTPE2/9AKwtMAva2eDqZkoCX6abF0zTcvSHe3rCHf4tGAeY5/T00KvNciNV0UxKAkmh+UZX1XpcanRZiWZv/7sp0E/lUQUnAHiG+EOLnRl1AyVTfopGukjaeGc7DX/rTm/a7nf4+WqZ7C12VBKAk+4c43em1rQ1xbIjNw/j/fL/AkQAlaaoL2CnEE8YwZEn0ZnlziC9ZWUugh/vwb/lBiD9x2hZ7p89qA92WBKAUF1icd/T6VvQ3I/j/lTgdIH0pYdMc8at03exNsji901fY7zXSh7/8OvXxdzn93f4pxHK6LglACTTceKv5XGa0Pr39j/RBV2oSoCFSVYc/a+VuidwE2nTrLitrvn+0D/8WzbWf6PR7qz0Brqb7kgCUQOv+Zzl++//rUf43Sk0Cdk+f3b9anBJAXp/ddSG+bmXsXdHph38r+fc6CqA6AC3RpCiXBCB7KrDzWHCjOf+jrDPD3CUWBlr6XbRsiqWC+Wgt8ZtW4O/WqYd/i2oBvNZFaEUSewKQAGStVf3vcRvd/5my7E5RYeCLaSSgtIM9WksFv2tsIezZPCtzyL+Kh7+lN+yPms/NybRi6hq6NAlAzg6xOA/p8e3/CNvxuv/h0mZBz4Q4ssAkQEsFVRfwzxa3VYUfqrPRlr7/3cob8hcN13/Cqjna91/S99WbvSzu17CO7k0CkKv5FufZvPlLi0ttqqCDhFQ8N7PAm7GGSqeHOMBYJeDFpPRZzCj099My3Q+l5LoKL6TE1uMeJdqX4zG6OAlArr5pPs+f/7JVO5Stg0g0XP6ZQt/IWqsEnjGmBLpJVex3hhhf6O/XH+IjtuV0zipov4vfNZ81EztX+KLSaDvTBJXrNZ9nz+umUscQ9rL05rK+0M9XS5V0SuJX6eq1U5X/TRbniHcv9HfUG/+BVs8y1BvMZ4GrRtrG0N0ZAcjRKeZz85ELrb5lbZq/eyCNBJR4o26tEpiWkgF2L6velNSnphX8O+r7ebDFUzjroKksFbru66wdVEekUbYX6PYkALnR7n/eTt1S8d9nLR79WxdVGmu1weyC39bekX4/Ng6qVmtjn56Cf0eNzn3MOl+guyP/1+J5GN4oCXqIrt/5NxdURwU1Bzi8ruVdekvVQ7H0Q3ZaUwIXWXkrIDx8n/Tgv97KHxK+v+YEfeCog8dT+KbT/UkAcjPB6UPgxi7+7DUN+exVE/BU6gMYPQ31a8OaWQ35fbv5EL7TYXtolcd4vgYkADnpc3hNKsZb0sWf/5MGff5T0kPrK3wVRkwJ9AKL8/1NegB0M1G+gfspCQBG71CH17TYulvpu6JhfWBMeoA9xBvMsE0ekEA1aTpFNTqruvjzteeAx02uPshXggQgJx7n/+/t8s/vb2hf0BD2j605Q9ijfevXFIr2kJjYwN+/PyUB3XS3w3aZwleDBCAXk8xfoZIK/5Z2+RrWWXOXyWn1g4rY7jOfO655oAe+aieaXETpoQhvqcN2mWIU1pIAZMJjtrrUwZuFrGh439B2tTowaQ5fk63e+s9Lb/1Nf9PzsFJmlflcsXMAXxUSgBy8x+E13e/kOtbQPd7YGvqWELcbtQGa6388xLlW7h4Rw/GSk+t4wmHbTKJ7dDbrRjW8zV1qTfESJ9fyd3SPN2njIK1xPsfikdGbG/S7754e+qdwL9qKl3X4qhfytoJlP7oHCUAOvGWqqurd4OhasIXqAbRS4KgQc60ZhZIaytUICPskvJWXofcn0ouDp1om+ksHMQVQ3Q3d27Cup4fuSrrIoKZaXCnwNSt3pztNfejwnse5mQ9qlXVnB8DBbHKYrE+mi5AAeOdx6dK3HV2LRiLW000GpQe/zo94rsCb3YyU4Oj4XkYfB+dtG15vdQBjzefR6iQAcJsAbHb4RWYUYMd9SBXxmhrIvUhQ02H3WFz+yM17+37o7HoeddhGvXSTziALr8Y+zq7H49p7JQDT6Co7/H6qCGteiGNDLMrw+k+3OKLBvaY9q5xdj8eDgUgiSQBc83ZMqce37efpJm1rbSCkfRzmWx7LKFXPoNEL5mzz/q6uTS8PnjauonaEBIAEYBg8PjCeoJsMm5YLag794hAXmp9isW37vnbxm8P9Zdg0Utfv8Lp0//C0OdPv01VIAEgA2vdDh23Ub/6WGOXynf1aesCeYfFwJw97B+hz1P79pxmb+YzUavO5D8RKZwlAL12FBMAzb/u8ex0y1o2FrT1HfhPUtICWaWlaoJvbK6u6fwE35o58Hzx6ydn1cKomCYBr3opU1jptp+UkAKOm9tNqAe0ieJbVW+yp6v6LUgKA0XvG6XWtc3Y9jBqSALjmbQjUawLwEl2lY7S2XkcNX56SgSoTAb2BnRnieG7GHU+ISQB2rIeuQgLglcfOuclpW1EI2Fnj0hv5aWk04IYK3ryY568uSV/n9NrYtIsEAMO4SZK9t0e1CRt5mFSSCFwf4rgQp9rot3PVfWJmiEuNef4mJsMkACQAyNQmx9emiuflxhxyVVQf8JTF/QN02uBICgUp8KsH+2KABACNs5IEoHLTU2hK4BJrb1WIkoez+Wxqs5wmAAkAmubbNEFtVLQ3z+JGQkoENg7y72iXNdURzOT+UJtNxtkYIAFABbxXaWt+ejN9sdbvvDYS0h79lw1IBNjBr3s8HQEMEgCMgreCGe9LZrRcTUPSE+k6tSeGSgR02NDS9MbPkr7uWOb8+rzta7KBLtMZHAfceRv5Ahd3AyyZdq2czcO/q7wXAHp7iSABIAEgCRgG72/Xj9Jl0GDLSQCyf8kiAcCbvE0DTHLeXq06AKBpNP21zvk17sP9lQQA+XbQP3LeXp53QQOqlMP012TuryQAaJ+3h9nUDNpsKd0GDfSs8+tTofgUZ9f0K7oNCYBn3o7fVQbv/QhN6gDQRN4TX9UPcbw5CQCGweMpd95HAVbQbdAw2vxnrfNrnOnwmpguJAFwbbXDazoqgzbz2G6qOGbZUd40Z+yxyDSH0zA/5/CaGAEgASABGEEm7301wGKH16Q50INs9CfqoXt96gjzuemZ922wdR6EtyXEGxgBIAHwzmtV+5edt9v9Dq9JG+Rof/wPWTxRjy1b86AHxbEhDjN/RWyiEQnv8/9nO7ymVXRtEoAceJzTPj49zLzSkKjHTT4+nW7Y3wjxPqNeIYe3fn1OC9PfH+7wGp8231NLqhma7vC6ODSJBCALHjNVDYMucN5uHofap9uWrXL1ub4/xFnGjmTerE9v/Rryb80TT3I6AuB9SukK8zlt8hO6OQlADrzu762H2WzH7eZxGmCsbb2KQqMBOlKX2gA/bg3x3vTWP7Dg7yinD7J7HbflV50mTcK5ISQAWfDcUa8xv1MBi8xnxfbhQ7zFqTZgvvlfzlWqVemNf+4Qn4HHZWzrHSeOKvw72+m1qd1YAUACkAV11tVOr01vtI+Yz1MC15rP6ZOZQ7xJKln5lsVpgYV0+1qp3d+XksbBqILd48qXpU6TXG0Wdk+I3Z1+3l7bLVu70ASVf6G8bsCzR4hDQtwV4lVn1/bvQ3zU2TXppviDED8a4p+/YnFY95n0FrUn3b8ySqwPDnHjDh4IZ4b4gMPr1xv2Cw7vVY+b7x1DNXJJAS4JQDZ+G2Ke4+vbK8THQ9ztLAnQw/REh+21W4g7d/DvrEk3qn8NsX/6/6AztATzpBAnWHtTLn+REl1vv8MJzt5k9dB/IMS7nH/+p4b4NV+DzmEKoFrKVr3vIqdzAr7rbKRCUwAeK+xVQLmjfdE1UqAiy3fS/TtOD/19rL3T6aY6fZtdar72ktBo1VPmf5Owlcb8PyMAmXkt3YT2d36deqh9PsRvQnwnxOtdvp7XU5t524VMNQD/YG8t4FItxZEhLgrxzRBHp4cUb/+dpWkVDel/yeIIkR5aO6XE4LVt/t3zzd8xtnJ5iO85uZZTQtxu/g77GcwNFuuW0OEbGqqleeGvZNIXLrVY7T7fuj/XpmkJjxXcx4S4Nj18poU4NL1F8V2qV4/F6bV56Y16Wfqu6Q1bBbizHF6zhv09bHetvnt96rc5ULtdR5fvvJ1ogloerH9r/o/j3ZYechda95a36a36l04frHrgjKFru9UfotfhdSlJOajLSdPJIU7PLGFVUncw3brzmAKonoazf8/8VbXviDYC+ZOUuGj3rbqLb1SU+OEQeztN6uCX1yFt7cLZjfX/+g7rHIv/ne5DudV+XWJ+pk1IADBsWvLzlQwfHLsOSAT2tbiq4adWXwWzEqcZdB8U4osWV7jU9d3Vw161EJo/V1FkjjUp61O7vUb34U0mVzoZUHN/szPuJzNT6AvZmm9dYtVW6y9Ob030U+ROB11VPZ2maSnN66suRTUQvQW0263GmRskAAW4JH0pc2/zcSmRmZ1GAlalROBZi0t1+itInGbRfZC5Ks640JJTrZTRaodPpLf8noLaTLU2l9N1SABKoIfj0+Z3Z8CR9p/JtvVyK+17sDr9vj8c8Pfr0xvQcKcPbiMBQAEWjfJ7prM7JqUH/nvSnxOs7GLUG4wzNirFKoB69RlrWTelN/t1tuMNUXTjUwFTL10HGVPSu3xAAvzzQf6dXdLbu/q8RtnGpr/vMb9781d9n/jPJACMAJRENwHNn09rcBuMSQ90Hupo0n12Gs0wLN/i4V89tgKu36nmaytQAPBE04YX0gzVYxlg/V62OLz3AZoCAN7ijBCP0QyMAJRK2e06mgEAtqItyK+lGUgASqYhrvk0AwC8SQWSc83XUckkAKiElgUtphkA4A3atXA1zUAC0BTKdpkKANB02jfkYpqhXhQBdpf2t37J4kY3JGMAmkhb/Wonw5dpChKAptGQ156Wz9ncANBJx1jcIwUkAI30sMWTu95BUwBoEG34cynNQALQZK+HuC/Ekeb3LHMA6KSlIY4zqv5JAGCvhnjQ4il7b6M5ABRMRX+fNI76JQHAm3Ring4LOjrEbjQHKqY3r7+yeOSqDpzZmyZBDdaE+EiIX9MU3cVpgD5ND3GPlX3UJ7pHG1HpqNWrQ/QP+N913OzJIebQ91AR9bcDt+l3IAEASQBquPlenR7+G7bz7+kI2i+HONHi0bQAD38SAJAEIDMa5r8jxI0hnrbhnUSpY2z7Qpxm8Thbjg8HD38SANRoaoi70lsZ0K716U3/ug7ddCenRGCmxXoBoF2tgr+1NAUJAIav1+IywUk0BbZDb/dPhLjK4hKrKpZXaTRqTkoGJtLk2AGdd3KsbX/KCSQA2IHd00jAdJoC21idbrRX1/yWpb74OYtbWTNNhW1dGeIMY50/CQA6QnOwF4T4Kk3ReFo/fWuI2yzO7XfzJqvpKe1focLBCXw09E2Lx50vpClIANB5OjfgFm62jbQ0PfTvcPpmNSXECRZrBVhB0DyrLJ5yupKmIAFAdbRl8BUh5tEUxVuZHvqLLJ8qak0JaIrgqBAzjMLBJtC+/mcZu/uRAKA2Wp51U4jxNEVR1tqW5XurM/9dxqQk4HPpT5YTlvfWryH/5TQFCQC6c4NVXcDZ3Fyzprd7FfPdbbGav0RjB4wMTDeKB3OmVSeXhbjQhre/BEgAUAEty1KR4EwSgWy0KvgfTA/9JlVMj00jAp+2OJLFSZj5WJLe+vtpChIA+KIiwYss7uIGn29OV6Y3/RU0xxtUIzA1jQzMozncWm5xaR/9tgCcBlgmzR/fHOJRi5sI9dIkrmh0RsOmj9EUb3rN4ilx7yVxdfvg14Y+54f4Bc3BCADyoTcr7dxGAZYf2qr3j0OsoynepAf/Q/RRNzQdpZUn1xkFfiQAyJ72DdAabW3awqqB7tOc/0FGAZVoM6Hv0i9d0DK+hRa3lF5Dc5AAoCx6w9L2rZpvVfEVa7S759oQJ9Ef7XGLtSvoHu0oqWWndxhr+UkA0AitSuxWMsCyrPodYXGotakuDXE63aBrD/07U//jtD4SADRYa8OWD1pco81pb/XQFICmAp5o4O9+isUdLVEP1Zyogv9+i0v5eOiTAACD6rU4LLtf+lNnwjNdUN2N+X0NuyH3GUV/VVub3vKfTX82ba8JkACgQ3ZNowJKBt5j8eCXyca0QaesTCMB6xvwu04K8YhxYFAnrU99SG/4z6Q/ecMHCQAqNTYlA6rg3if92YpxVs0Ob5vTW7Ni44C//od0I9SNTxXMPelBk8tb5rIQBxf+lqY+oYr/3kyud/OAz2RC6tfvHNDH1cfqGhlbn/r56tTHf5L6uaKfWxFIAODNmHSTbP3Z0rOD0YNN6YbXehiuS/9b6892XR/i+IzaS1sDH1FoEtBKyHKqL9Epd/PbTGxaicD41LcHLmscv4NEdKNtPfqzNvWBtQMSXpaMggQAGOZD50XLq35hYYgvFpYEaCRIc/5TMrpmPZD/wJoxLYOGYStgNMHG1Nc/mtE1q7biHRartV/n4d81J1szV2eABAAoxpMhPmVbT0HkkATsb/HQoJxHAnotbvQzKbPrVhHd/EISMIAEAI2lm/hLIY4OsXNG162is6lpJODVDNtdD30ddbx3ZtetufZDjbMaQAIAFOGnFofV983wDfqQEPeFeCWj6+4Lca/lub//xRZ3yANIAIBCaCh6Tog9MrvuvUIcGeIHKZHx7sQQt1g1S0Cr1h/icxaPKAZIAIBCaGhXKwKOzvDa90jX/RuLNQ0eaembll1+zfLd4U9LMFfzVQEJAFCeFyyuQ5+U4bWrfuHjFqvpNZrhaUpARYuappiecd/4hsUT8QASAKBQj4b4vOV7tsG7QnwpxC8tbv/aTXrT/7rFIf+3Z9wnVoWYa+yVDxIAoGiqqNc2qkdaXqsCBtotxMwQs0I8Z93Z910rFO6y/FZXDOZwy6O+AiABAEZJUwF7WjzcKGcqENRWx5rSUJFgHbvWaQriKovV8uML6AuXGUP/aBi2AkbTafj6xxbX25dCZwmcY3FIu4oH/2kWRx1KOcZXG/58yNhnHyQAQONoGDunEwPbpQTgthCLLJ4WN1Iq7tNUwzGWzwl+7dI20e8zqv5BAgA01gUWl66Val160/22xaLBfos1AxsH/Ds6za51vK3e9PezOD3SU3C7HGZxxAQgAQAa7AHLewkbhufaECfRDGiqnWkC4E3HGnu/N4VO+DuVZkCTsQoA2ELD4c9YXNK2K81RLCV5HwuxgaYACQCAlp+F+KHFKndGyMqjTX4+YRT9ASQAwCD0cPi3EB+lKYpzXIglNANAAgAM5TGLy98m0hTFOCvEt2gGgAQA2JH7Q3zG4vI45O2OEGeEeJ2mAEgAgB3RefAPh5gd4m00R7a074HW+7PTH0ACALRN++o/ZLEokCQgP9oNkYp/gAQAGBEtG/tuSgJ2ozmyoZ0ODwrxC5oCIAEARqo/xIsWawJYHuif3vhZ7geQAAAd8aOUBMwkCXD/8Neb//doCoAEAOgUzSn/fYgZJAEuqdDv4BBP0xQACQDQaStJAlzSVs4q+HuSpgBIAIAqk4AXUxLAuQE+Hv5HhFhOUwAkAEDVNB3w7ZQEsESwezakN//HaAqABACoS3+IB0J8KsQeNEfttNTvIyG+T1MAJABA3V4OcZfFw4N6aI7aLLe41K+fpgBIAIBueSXEnSEOCNFLc1RuYYjPGjv8ASQAgAObUhKwe0oE0HmbQ5wZ4myLZzUAIAEA3DygHgzxDyGmGSsEOklv+0elt39O9QNIAACXVlg8SXCqcZxwJ2jZ5YEhvkNTACQAgHeqUL/NYk3AJJpjxPTGr+N819MUQOfsRBMAtdBeAbeEGEtTtE2nMM4NsYymAEgAgJyND3F9iOk0RVtv/WelJAAACQBQhNkhFhi1AYPpDzE/xBKaAiABAEqkh//JIU4PMYbmeGMv/0tCXJn+GgAJAFC0iSGusGZPC9wR4gyLRZMASACARtHGQRdY3DugKRaHuNDikkkAJABAoykB0C53fQX/jkstFvit5OMGSAAAbG1KSgRmFvL7aJvkRSGu4o0fIAEAsGO9IeaFOM7iMsLc9Ie4OcQNxhw/QAIAYNh0poAKBQ8NMcfigUNeacc+FfbpTAQN92/m4wNIAAB0JhnoS8mAagYmWvcPHVpjsajv/hBPWxzyB0ACAKBC41NCsJ/F2oHJFY8Q6FQ+FfBpLv/59JbPPv0ACQAAByakRGC/lCAoelK0cx6BHujrBvy5Nj3sV6S3fYb1ARIAABkaO0QioAc+O/EBAAAAAAAAAAAAAAAAAAAAAAAAAAAAAAAAAAAAAAAAAAAAAAAAAAAAAAAAAAAAAAAAAAAAAAAAAAAAAAAAAAAAAAAAAAAAAAAAAAAAAAAAAAAAAAAAAAAAAAAAAAAAAAAAAAAAAAAAAAAAAAAAAAAAAAAAAAAAAAAAAAAAAAAAAAAAAAAAAAAAAAAAAAAAAAAAAAAAAAAAAAAAAAAAAAAAAAAAAAAAAAAAAAAAAAAAAAAAAAAAAAAAAAAAAAAAAIC2/X+oqUzHVrV8eQAAAABJRU5ErkJggg==;" vertex="1" parent="1">
          <mxGeometry x="220" y="150" width="142" height="142" as="geometry" />
        </mxCell>
        <mxCell id="RpYRkauJq-apALAoT7bk-2" value="" style="group" vertex="1" connectable="0" parent="1">
          <mxGeometry x="560.003076923077" y="300.0013872832369" width="72.27302801244997" height="72.59959537572257" as="geometry" />
        </mxCell>
        <mxCell id="RpYRkauJq-apALAoT7bk-3" value="" style="shape=image;verticalLabelPosition=bottom;labelBackgroundColor=default;verticalAlign=top;aspect=fixed;imageAspect=0;image=data:image/png,iVBORw0KGgoAAAANSUhEUgAAAMgAAADICAYAAACtWK6eAAAOuUlEQVR4Xu1djZHmNBJtIjiIgNsIgAi4i+C4CDgiACKAiwCIYCGChQjgItgjAiACIAKox9i7Ho+/z1KrW5a6n6qmdqfGlqXX/dQ/+ntDWIgAEbiJwBvEhggQgdsIkCDUDiJwBwEShOpBBEgQ6gAR0CFAC6LDjW8lQYAESSJodlOHAAmiw41vJUGABEkiaHZThwAJosONbyVBgARJImh2U4cACaLDjW8lQYAEuUbQb4rIO8un3xUR/H5U/i8iv4nILyLy8zVNzf1VEsRf/n8XkfdF5B8igv/jX20BYUCUH0TkfyKC31kcESBBfMD9l4h8sCGFz1cerAvI8q2IfLdYG69vpayXBLETO1ylD0XkP3dcJruvHdcEouDnG+8PZamfBGmXNFymzxpdp/ZWPK4BbtjXIvIVrUobtCSIHj9Yi8+XuEJfi++bcMG+JFH0IJMg9diNaDHOegGigMywKCwVCJAg5WAhFfvFEmOUvzXWk8h6fboE9mO1bNDWkCBlgoHVeHFh8F3WyvKnYE3+W/543idJkHPZw2p8cv7YdE/AmvybE5D35UaC3MYHLtX3IoL0bdSC2OSjJTUctY9N/SJBjuEDKZ4HJ8e25yAJ0sIsOwRIkKcqAXLActxaHxVViZAORgDPskGABHmsDlnJsaIAKwJrwrIgQIK8VoXs5FiRQHYLWS4WESFBHtSA5HhMB8YktCCvNCJDtkpjDZACxsLH1IUW5GECEEvTWR4jgBTwe9nnSbITBL42VuKyHCOAycR/Zl4RnJkgiDtekhmnCGCBY8SVBKcdxwOZCQJyRJ4lL1KAwodgRbBzMV3JShC6VnWqDlcL8Ui6kpEgODgB1iPbTHmrcqecH8lIEMwWYzcgSx0CyGo9yxawZyMIrMdPdXrBpzcIpLMi2QhC69HG93RWJBNBaD3ayLG+ncqKZCIIM1c2BMGRQohFUpRMBEHsASvC0o5AmnmRLATBoQvYBMVigwBObsQJkuFLFoIwOLdVZQTrb9lWOWZtWQhC98pe/1K4WRkIwuyVPTlQY4psVgaCYCUqzrZisUUgxfqsDATBrjjc18Fij0B4/QnfwWWZNm54YrFHIHwckoEgf9jrBWtcEAi/bz06QRig+3I5fKAenSCcIPQlCO5FDH3gBQniq0DRa8dNuy239g6PT3SCcIGirwqSIL74utdOgvhCTIL44uteOwniC3H4pe90sXwVKEPtoXUodOeWU8p5cqIvTUPrUOjOkSC+zFhqD61DoTtHgpAgrQiQIK0I8v3QOhS6c7QgXdgbWodCd44EIUFaESBBWhHk+6F1KHTnaEG6sDe0DoXuHAniTpDfo5+ST4K461DoD3At1uTi5VosXwGSIL74uteO0/+eu38l7wdIkMllzx2FvgIkQXzxda+dBPGFOPwZvdGDdB7a4EsQHtrgi2+X2nnsjx/MPPbHD9tuNeOIzHe6fS3Xh3hwXAB5/yAiPFnRR5C4AgFXIYQt0WMQCI5zIT7q+0uGG7syEAQHm73w0ZHUtYY/NA7SzUCQN0Xk19Sq7NP58BmsLARBP3E8zds+epK21vABeiaC8I4Qex5n8D5SuFhQDd4yZUuQH0XkXdsqx6wtxSiwZFtwkSeLDQIp4o9MLhb6yglDG3KglvcWPO1qHLSmLBYE8H8pIh8PKoeZmhV+F+FWGJkIwpW9NjQMv4I3K0HQbyyL+JuNnqStJfwCxcwEoZvVxutU7lW2IB39RWryZZuOpH47lXuVkSDoM2fV9RxPk71aIcoUpK995qShjiApVu/uoclIEG7D1REkzeRg5iB97fvXIvKhTk9SvoXgHANL6M1RR5LNaEGAA+dE6nieLjjPHIOsfedW3HKSPFuSG+VvBHkyqwWB+HjqYpkShz8c7h4MmQnClG8ZQVJsjLoFRXaC0IrcJ0lq65F1onCvEpw4vE2S1NaDBHlQDJ56ckyQ9NaDBHmtGMxoPSVJ2swVJwqfKgPnRR5jknbeY68a2YP0LR6cXX9AI+2s+ZGnSYK8RgUHzCFgz76h6tNle3JZEjj4UyTIYwFnX+nLwHxHeBLk6QiY+fSTdPs9zgwgCfIUIew6RFYrm6uVcjk7CXKGwPHfs7laaU5KrFUHWpDbiGU5zxdZK1hNJChYGIMU60CWrFaqY3yKpb88SAtyH7HoE4icEDxhDAlyPqREXfHLlO657NNcf1AAxd1Hoh04h6Ac1jHdHvNaRaAFKUcsStCOoBzkwHwPC10sMx1A0I75kZnvXCc5KtWBFqQOsJlJQnLUyfqvp0mQetBmJAnJUS9nEkSJGV6biSQkR4OgaUEawBOR0feQIFuFNDUDcqWcSRAlcJvXRp0n+W4hB1O5DTImQRrA27w62gpgrsy1kSuDdCMc17gEE4pXHoqNKwpg0ZCOZjFAgBbEAMRdFZiEQ2zytn3Vd2uk1XAAnAR5DCqO+Lda9v25iGBfiffGK8Qa+I5Fu+EqojCoX4AgQR6AgFsE1wR4wAJYFaSDcTAdyGJpUZC6xdIX1GtBjLW/6+pluGiwSOldtewEATGgZLAcKJ4rXEEU/EAJtWRB+0AMuHAe2an98n5YEsRVWBafsmQkCEZ1EANuyUqMVfieBNkqGFwZKCN+0B6U9zcPINheLQOUFKToMZrf2v+CtmAgSUeUTASBIn68EGNVyv2o2Isgo47GZxvE0hElA0FKiNHbgsxKkLXdaYgSmSA1xCBBHhA4syB7YocnSlSCfHbiSt0aweliiXyvMG9hiRKNIPusVK2ssxMEgTgGF20JR5QoBGklBl2sBwRaCbLiGGYeZXaCwGfGiGc5uTc7JtrR35IgW6LgtPhpZ+ZnVQbMX3yxTLy1KMTRu7NiYoGD1+ktmNjEzLzlrL9Ff0/rmE0ZkJlaA/DTzikfmA0TZTcPX/O8ig4z/yDgV06rACxxeFXXTMqAST74yLcm+awAynwFgCdBVvnAisDtwuqA4csMBEF8AXdqXWnqDWrmq49/7TAAbeOTj0Z3u0YmCCwFiIFVtj1L5ivI/ugJ9PIteAXDul2jEgRpW/ir3u7UkT5cufHo+eKfg6S9Cyz0y94fXb4HtwvWpMeCzKoujkYQZKegJJZp2ypARAQbkLAsvWfBQIB+r99F1gcK07PULjPxaBviEvTbYym/qr0jEaRXEH4GFHL2CNR7FZADyzv2MRZIAkvSS1msJglbcUN/QZIhgvgRCDKC1dgLtRcut8ixtgdkRdKgB0lGO+NrCGvSSxFujSpwKeBaXBFr3BvpeqR6YTFgOc763oskPVK8tdbl8tjkKoJclaEqFRBMPEZUr1JKjvX7UBRclea5ZOOKDFYpvnD/kDzpXq4gCJQDVqPXvIYGVKQdsSXXoyBtjfT1meXYfxtuFtwtD5KMEKCfYQ0Lh0Gih7v5qi29CQJBvFAoxxl41n/3CtRbjymFckBJrNOhs1x77TlIHOpQT4K0Koc1Cc7qs8YGWTrM7VgUaxdwptuzQBJk9zxd4O4WZJQUYo1yWl6P7NF/yyUxPZeY1Mjg3rPWg8RlFmQ2y7ECZRmHWN8nYrnz8coZ9FayuJPE2o3Yd3hWcqAfyBw9a5Xg5n2QBHW2HkVqfUPtLPHHLVFYWvon3/AkyMwj0woUCGK5yaf1mgQcOYo6LNs04vxHzbiEmATzVpaYuMcgGC2x8G1/cmFNx0d41mNlLyZHkcmrLR5XqUFOiD9mL15ZR7f7QaAAvRf8eQjZC3iN6+nhSmja4YGzRZ0uq7A9XKwZJp1qBGLtZq3frpm5tgzKt32fKb1bIjNzWXkQ5KcArtVWGB5uFlxP4FRTrGWlaUNNe694FvEU0t9mxRr02TMiR8BaZ7PwDU0cYr2A0mNuxkwxGyqynB8yj0GiWY9VTqagKw9os875R5WVqRWxtCCRAr79AIZ7MSz3xmtSq5YTl9HixL28zAY0S4JEHZFW8C0DQA1WloE69qFcua25wYMqetXMilgRRONTF/V0oIesRvCWuQcLeUWYwC1RC5MBzQJwNDZauvBIAJixBeit+xFa3BuLQH20rbUlyq55xmRAsyBIy4io6fiV71hMRrVkj1onC7NYD+gIBrK3WpXFgiARU7u3cLVY99NibVsJGj322MutdUAxSfNqMjKtxL7y/daMliZAX/vbEqi3uHZX4t3y7VZZNRMkk3u1FZQ2FmjFq8VtwOLRkc8BaCHCPYvf5Ga1uliR5z7uCUy7iNFiFNdkZ1riHg/F7Vln05xIK0Fa/OmeIHl8SxMPWMRrtX411lzBetSeouKB2RV1NmWzWgky415mSyHVuloWKdZaYmZ0rbYy1lr7v+poIUimlOEtUtWeemihrDWButeVapaDTI+6EIeo5q9aCGLhLvQAx/sbNSex1+wBudXu0tXFGVY3lMpWHYe0EMTCXSjt4OjPlbg9FgH6isPZiFh7tOno+La2r0Q+h99oIUhLPr+1wyO+f7Yc3dLi3hsRswflR7pR45Y+el9LkNZ8/ogKbtGmeySxtLi3RkRajmMpquePtASxdBcsFHOkOm6RxCJAX/t5dAsWyXFfCzTzR+oslqW7MJJyW7UF2aP9PYMWAfravn2gPsuh4Fb4aupRBepaC8L04bmItsf1e6TE10Dd8lDs817N+4QqUNcSJNsCRa1arPftrZd0aus5eg+uHG4Djrwz0BIv1cJFLUGyz6DXCg5EybrUoxYrr+dVmSwtQSz9aS9AWC8R2CKgymRpCOLhT1OURKAHAtX6Xv3C4vNiZxoLEZgNgdrFpao0L1O8s6kF27siUJ3q1ViQzJtvqGpzI1C7l0ZlQUiQuZUkc+ur50I0FiTzLsLMyhWh710IwknCCKqSsw8kSE65s9eFCFTPpmtcLFqQQmnwseEQqJ5N1xAER/3MfjnncJJjg7oggFXQ2JdTXDQEKa6cDxKB2REgQWaXINvvigAJ4govK58dARJkdgmy/a4IkCCu8LLy2REgQWaXINvvigAJ4govK58dARJkdgmy/a4IkCCu8LLy2REgQWaXINvvigAJ4govK58dARJkdgmy/a4I/Aneo13nBsV6gQAAAABJRU5ErkJggg==;container=0;" vertex="1" parent="RpYRkauJq-apALAoT7bk-2">
          <mxGeometry y="19.99843930635842" width="52.60115606936416" height="52.60115606936416" as="geometry" />
        </mxCell>
        <mxCell id="RpYRkauJq-apALAoT7bk-6" value="" style="shape=image;verticalLabelPosition=bottom;labelBackgroundColor=default;verticalAlign=top;aspect=fixed;imageAspect=0;image=data:image/png,iVBORw0KGgoAAAANSUhEUgAAAZcAAAGXCAQAAADVb9WGAAAABGdBTUEAALGPC/xhBQAAACBjSFJNAAB6JgAAgIQAAPoAAACA6AAAdTAAAOpgAAA6mAAAF3CculE8AAAAAmJLR0QAAKqNIzIAAAAJcEhZcwAAAlgAAAJYAJvGvrMAAAAHdElNRQfjAQkDFiuuDld4AAA3WklEQVR42u2dd5wURfbAvzO77LLLwi5xycKCgihRUVAEVEyoGJEzIZizoJxZz3Se/jw9s2dO6OmdeuqZAcWMGUVFCYIYkCwZSfP7Y2Z3J/TMVHV63T39fZ87l5nu6lev6k13V3gvQoi7RCimhDIaUUkVLWhFS8ooo4xyyimnEeVUUMRa1rIuIetZz3pWsIilLGcla1jHH2xiq3RlCo2ItAKBpwGNaUE7urA9fRlIQ1tLn85nfMNsFrCYlWwgJl3dYBO6i/1EqaQDOzCQQfR1+dq/8C7vMp15LGOjtCGCR+gudlFJO3owgH3pKa1Kgt95mXf5inksYYu0MsEgdBdrlNCenTmQ0dKK5GEqz/E+s1ktrYi/Cd3FHM3pwZ78ie2lFdFkKw/zKp/zE5ulVQkJPo0ZxM3EAiDPcyRtwp/LECcoYQcuYK54J7df7mYvqqTNGxIUmjOSSeKd2mlZwgS6hPeaEPO0ZgwzxTuyu3IdPSmSNnyIv+jI2SwS77pycje7UirdCCHepw3j2STeXb0h99GHqHSDhHiTRoxgungX9Z78mfbSTRPiJaL04xHxbullmcVImkg3U4g8rblIvDP6RZ6lTzh2VqhE6McL4l3Qb7KCkZRJN12Iu5QxkhXiXc+/8tdCfZ8pvJtrW07jSmklUtjCKlazhtWsYS1rWMs6tlBBYxrTmCZUUkklxdJqpvEWlzOt0DaoFZa79OBGDhK8/qdMZwG/8BtLWMEq1vEHm1Hd0hUhQgPKaUJzqmlHJ7Zle9HtAusZxauFtFizcNylD7cx2OVrruYdPuFrfuBXfucPh64SpYxqaujN7uxHuct1hGN4zrG6hQgwwNUZlclcwCBaCT0+lVBNf07gbr5zsc6nCrhpiO1EGMoPrnSYpziJvlR56n5dQhdG8bhLLnMBldIVDrHCUJY73EU2cAt70Uy6onmpYgAX8bnjLnNeOMzsT3rzpYPdYiU3Mpim0pXUpgGdOMXhR9NjPTeKF5KTzg5OQD7JsAA8dFSwB3c56DLDPfVQGpKVltzpUBe4jt40kK6erUTpxMl84Yi1fmE36eqF5KacSx1o+FmcSsdA/1pWsCf/c8By0+gqXbWQbBxoe3Mv4yRaSlfLNRpzCB/bbsO/0ki6YiHpdGGazc18JTXSlRKhBSfwk822PDTQ92afUc7VtjbuA/Qr+P3q7RnHFhtt+hXdpasUAjDcxkady4HhvEEdEfrynI3WvSXcYiZLRz6wrTEfCn//DGnFhTa6zP7S1SlUIpxsWyOeEQamy0kJBzDLJlv/h+bS1Sk8trFpZnoaQwr+PUWVbtxvk8scIl2VQiLCKbY02rNsJ10V31HJBbbY/mVaSVelMOjEDBua61E6S1fEt1Rwni0uM1K6IkEnwmk2NNNdhbrT3EYacZYNLfGSDxep+obmTLHcQP9HtXQ1AkOZLT9e4coyRxhkuWFuD8dkbKchJ1lulyvCwRZ7KeJKi03ycviu4hillt9lZtFBuhLBoZ3FtBFz2Em6CoGnpeVB5sOkqxAMrK4zPiBpeV/EUELsoYfFzc0PhkkyrFHE/1lqgBNTtnONynJUf+lqBoh9LbXXL7STroB/acpHFkz/aErAiTIezHFsuPTPPko405LLDJKugD/Z0YLJNzMgpaxu/JHz+Gfy6LIznWypU5RyWtOL4ZzDPXzIYZRIm9kRmnOvhdY7S1r97Hj1yf1wnjV97gXcwaakfx/DE3nPOZ6JWb8byAfARK5gfuKTKF0ZwaUsYhGLWcoyVrCClaxmNWtZx7yk2MERBtOZ7vSiPy0MtX2E5a7a1h125z3T5/6Lk1gvXQG/EOU6079Mb9MxpaxyHlU8c9ss2gxOOuZxIsD+eUr6I2l+ZzcWKFz7n3SRNroDlHGj6XZckdaOIVmo5B3TRk4PF749W5XPXW74YLR3yjEHAPB+znK+q9sM0EdrpOg9Bnr2Xm+evqw33ZoDrF8+6HQwbdz/Zqw/Ol6zhFuooISipE57QMr3wwBombOM12kIQHcmm6jDOkYmzg8ODbjEdJseLq28t+lt2rBHppXUiCdMlxVjA3N4h3+nfDY0UXKudVIPJpZzXGbh2jEuDNxine5Kj6RGMl5ade8yzKRJP6JtWkkNLXVXI6kf3lyX9Zhr646xvlr3wazvUv6kyLRN7gpXlBkx2qQ5TzV84m9gIO+Z7rzJT9HV7MqpPJ4RrDx5+PMYW1z0YwYFKq99H5N2mOKdSGVeebm8POm3WZ1fuIsoRUmylNtZm+Xoo3jalG79+dTg0zO5K+lfJ/BY0r8O5CWb7JJart9pzIOmNoUtoSeLpJX3CsU5Z9z15egst2+dic+NrGQR8/mOPlm0finl+OdTvtvDtrqMlm4c29EdgKmVIA61m6CE1211lhgx1jEkY2HLAKUzT1TUOpJxZvJjk9nHjkJwF+jGBlO26CWtOOLPxmW8xb4OlDqVlWzlIUZSQwmwDx8qndkt7xFRSqgwSICUHKphbd5SAKbxju019wPfU8V9Js77kl2lVZdNXNOIDxz8zYgwlrEAfM9E9qOUhpQlpJxyGtGI49LO2TFLWZU8Qzva0zjr1Xqzsm7hxjrDIz7jE2YwmwUsYTWbgCJu4VzH6u9dNnAar/Gc9nnTGFKgPzFAE+ba/hiWXYxolnHUrCy6jlW8yrtcz5H0Svu0TY6llKcX3MNYLV1NteMwabVlaMZiF50lRoWhFo+lHbXF8KhInhXNuSXfHo5ce0RGBzqjcJWpLRr7yCksNZDcigUu7507mTWsZR3rWc8fbGAjG9lEO75OO24gJTRMPLg1TDy2lXO+6et2ZW7eY3bI0CKZuTzAG3yX5RHP3xRzC+don7Ufb0gr7ibN2ezqnUVOtlewxu4sVCorqFtzzcS63ltaafdowhKbO+WopNLtzyFmXvIPY/TiE8WyTpJuNgcZYsK2QyQUdf9hrBFf2jbl1DPx33lJQ7f2zaib42/8xK8sZhkr88xE13ArByuXW8pG0Xo5S43CI2s6u/OBtNpO05BPHX7U+bPwHUUtSmZr7tMq9QjphnOcJryrbeuAByVpwJu2ds1Md9lN2Fli7JLXClXau0U3FMCq3FJT1u5p/cI6uDlNWcS/2dPWEjtkRD983cX6xK+3X9onH3Ejd/BLluPLOI1/aF/loCwD3EHiFFNnfUUN86RVd4YHxH/57ZOFnEcXolxh+O2hhvVvoLy8sEnKKuvg31mMJozVpVJaeSe4VLyL2yNTGUnLulqNSPt2CtcxktaGFpioeIWJqiYNCBH68LiFFvlEeCmXAxwr3s3tkAczQh/1SPr2krxWKKIjR+R1m77SjeUizW1JemFmwaaH2VO8o1uXH+htULOmSUdkBsVulsUeEVoyjFtYbXgl6VXi7lDEQP5nW+uMk66OfViJR+kVOTLLDFVR4vtN/Ji2kaxhYqj4fg6mbVYXaMIuXMp3SVc6W7q5XKCcCba30EHW1fIC7Vzq0A9xIv2p5iDbS/5rluWZcUoMXaELK9NKeZHj6ZoS4jyZhvTgNN4ilvReFFSsRE3IJX2kK2adxjkip9gj33AGNUld9lBbS3+bGhO1PixHiR9zHr2zrjMO3EtrBlH+41hfaGtdPUkivOaoq9xjsF1rjI3lm1nIV8IdCiVvNVFyMFCxjllZ5vR2B2d/zS7PmMSzl9OZwfNU0JhKmtKCllTb9gszjntMrdK6Qunt42NH7eJd1KxjlmY8x3C//hQd7OidxUl5wkJ+5GuVrnCvdOMIYT7+tar8n5PqOzdo2Z0XnVTcMX5jZ451PKrVTMNPIwwOeKZ5c4uUdNaY/1k5mo8JnHKXqiwdwuscSzs+c+E6P2R8EmEvfuHtlIgyweMjU2fFtFaUPWjzysQknHGXKP9zSmGH2cmlJ9+fU/4VZV+WMYU2QJm0CSwRqUvXYcz3pkrdygNcpHH8mwoBsDyE2vO7N8WdurevO76I4SmD7btJN54JIlTSjzN5mRi5VyWYW6b/XwBu1zhjo38SfwwV7/JWpLXF2qu5S3zis4hD2JL2jWCcE5M0SatBvsfJUqrpo7WKMJ54McqLGufcLm0WNVqId3hrYnXfopq7vMALvGD4zWEWr+8+6RGuByud1VijTWpT7ZYyW+MsB3547H53iSRunP7lBFeuMoIRjDD8prFmSdIMzhiJUnOX1TyofI3a98k/tBLwvWH/giK73eUc3+dFPzjrui538Ju7ZA7bqt6f1XeV1r9RLtNKE/Vvu0O32OsufbnNXvVEmJI37qST+H9vYB/FtSLfsCLl369lHeZIHq2cU5f2MD9DTW5pdgWdp1Gvy4mmf5esjgreKN2MmjxiUIf2iufWZ1k7n1ZkS5J4ecZPiE4gv+7SBsrG0+Kd3E75OpHqQo8Sy+7it52BRhlF91c8t4IYb7JHUjSC9JKuNlzl0FHDnqu9Gf0zGNuLM2UqN3AM/WmbZyS/EXvxlA3X+49PQllUsRtX8hYDaMazGbVQzSaZnuN5WlIZ12fJAB3hCy2L/l3aVJno+LufxWjOvYpDmGTjNRZ5fKNTEfem6LuRYzgyrQ5mFzrekjj/phyjWqdoW9SxRTHmiPCxeEeWcJdmHMd0R65zT57FJJKcYaBvHyr5Z8onO5gquza0VPY3x86m7NlcQwfH8cOD2HwH3OVhRzU+yjN5qZMx3kzeCYD+SVkn55sadd01pbxMonxjypZuh2vMQWtxV8gtS9mfIqCc3pxno7u0dVzzbz04rmOceLf21/vwpM/G5CiliOb04Tju5koOYQeaJQaf051xM+tZxXIW8Qs/MiclCIiejJU2XC1viDtEdpnJHim/0VZjKCe7y22u6O8t9s+iZ+2m334pnxrNowzjDmYZlrGUD/nQQVvqTHA6xmEOVtC6bE0bZ/qbbe7S0hX9vZW4tFEWLScSIUIV/TPu3uld1B2rGcsC+QhuzcUdIp8MT9F3tcXS6t3FnU0K+tmBneTvhjoeRv2IVqZczTZ150eYKtoX/iRtwGfE3SGfrE76TWlqubRad6lySfv7pRs4hecy9JueWDD0Vs5afJtYTqo/BGy3NLFmAGu3p/19kKangr3q/u5jW6mnuqT9cpeuY47z6ZdIzbFjzuO2pwjo5oEVC1fKXbqR+G+FmvxGhMbsx/M2lFXmcs3zhyl3k9S7S33mzYhCLUpYId4TYsTYzooBrNxdJki3niLVvMsqXuMQG8o6inuYwxrXdP/dtSvpcTflfFX3r9xbHp7mBuAaj0y8PiFz2UJZ9mKHvMDghNyT5YiHM/YkxriJHeXHclKI1Ekqud7kfqAUGCzeBvUy3EzVrfKyeLX9IpeldK+dDI/ZG4jUPezcSV+fLLSMk+2nc3kiEJRbAyOqYjrajtmgr7vL+Kgv+Yjk+DKf8YVBwqNPqN0zuIgObJJWWZPfU9JFLGIpK1nHxkSNIjwirWAa47ne3InmViUVscrp4M0BYh8mp/y7f12E5Nm8ycd8ywJ+BSI8y2FAOeulVbZMMZW0pxv9GcrO0soY0JGf3LvYWPHbqZ9k/4z8MAfRncq095LWSVlPTs2ZUcbbnMGj/Cpu83zyirnKmbm7VKXtsfY3/0n510iHrvIatzGbJazJEiXz8EQsrXqu5S7HIzXbTwNTWQskGMy77lxIdWnh6eK/IbllCrun/cKXu3BV4wk94wiNj3ljWaAG1eKtqipb3In4s52iOovr8jZ6Ua40zAPjvLu0yGLV7MEa3qOrXO/XZoB4y6rLGW4YRHUAuQ97iBskmzySo37HESNGVxbYcqXhDE26c3TKetVc8xI6oeiksSPtt3vieB7QHoqKPEAncWNkl945aljrLuU2JBwdkiizVd6rts+y7SqGv1KUThRvWx1Rj6NpksmKijTnD3Fj5JJH2JemlBhIrbscYnlrcf8ku/VPCyZXRTVt0+KllDGI+w3K2V7aBzT4Xbxl9aSNk8boqajESTl+KwtFcod2+CRx1HquSfummB25KqUkM7mXZSgRt7quOBpUSe3xZCvXiJvBbpmreXyXnHZM3pHe1/CICB05nRg/J5Ik+QPnoxfYL810Kqgz79KXz5WOO4p/S7ebElOSIuhOoXPir/rf8g68nfjrBi7jeI2lHO0Tu0CgB9/VzbTUz27vzQ2Jv6ZncRd/0pIzGZNjQEOFFYxL+fcBDu+BvILrnCn4UyVvdTI4gZ3yTVJUyiuSPq8PMlo/WnUPxbRRnKtekTRY3I4Y7yZKTB+k3spAunkr/pVNlLGLpZbpnFJaEU863BMcyXnQX7yD2ykrkrahps4VGLlLjM8Uy52blDurIb8lPt2RTHd5VLpXO8gES21zWVppUYfH2851wgRfK13antkK56V+xD09VVytuxRzvqmSP6gruT7I0K5kusvR0n3aJowe5/VimmZO0UYzrmE1gk9usT19brDuLR2TapYenCPuLr3rtsqO0ohesjolc9YJdZ/HVxBUJ03xHiDbx22gMX05h6nEeINz2YVmdY5TrNUWu9El47OeBtc70cH+MMZu47wp3sXtk2VJ9fpTxrdnpu1IByhjoELe3VFpW7ourvumNmXCEfyJPenp4/XGDdiGQ7k3y6za65zDLlr7bHuAwWIp4zSswzTK1RVb1495eYZeX+rH7VTCU9cTZeesR11osP+nAx1pSkOPbSC2huo7nJrUpk3KDMhknFlnB8f6hK0Rje4Q7+J2yvhErYr5Mesx39eN8CVnwjJ2l3udX3vkEazNqzzPHlzCR4l//ZA049Ehww2nZYkO3ZpFmlf9q+Jxtv2oeW2ntVUZlqjXVYbfjqYREahzly+SDJnpLlOtBeLxGRdYsnvtI2gRrdkr7fU6YvDC/yDVBjqUa64YiSpObexnl5HOFe/gdssoigyCi//MFO6tG4WvN/IXSZJ8/NKsqUeDSdSSzXvkLb8T32acdZHBQ+5Rmu7SV+m4xfakB/HfOiAV2WTwWepyiHy/SccG6p1EhZ0s2FttZj7KmQbnjkqz9IGa7gKfKx1pS4r7EeJd2y1J5uw8x54k3XcFOMu0Ze/RuEpX5mWcv4Ldk44YmuNKf6bGwF3UVhl8Y4eRFot3Y3fkEY2OcY50zxVhqEnLLtTMIF3EeINSpta97WTr/LfTgsyw8fE7k9r0eS8tPQ2wcgP2lyxOktxHXijdb4UwO53Q0cS1uhuMgL2XcDvjbSS1m+/SXx7i7qI2ZzPRqoleE+/GXpOrpHutGOYCqe9r8mrFSdO8tXITANsaXqd+pM3IXVSHKSwltGgm3jm9JjdJ91lB8sXZt//HZUdW1ZU0uW7DXQeD63yZdNbslG9a04+jGMdJSvoea0VdtUsUjtztyVzE7vGVpr0+tjx62IC/JMoaX/dZhMcyrpS8qvg/Flo4T2S33NW5TbZ1PMZjnEXMejE+RjdT5vAsQQjV2cQuib/qhwtijM2IQjkl6e9vLVyvVe7NbblCim+fFnqhsHmWEwvcWeAzraMHsNTENQZwDEtZzgp+ZxU96kLXJy+C3MJhvMOuSZ/MyfK3PseYDTfuRiJsv8jrpnMVBAmdoHsfmrxGSZZoMukhQMqT4idMS/mmKVsttbWpB8iGSkXnX9YeBHlfc+YgqLTTsJnZETHobljeDRnHVdXlsT7dgp6ZYmr2ZT+loncU78rOy1f277bzKWo/oXEptXAdo1iYxxsc1yrxXbeMb7pZaO+7zKisso7zl4JwF/8ELnKeYkawRsFmueJ3RSmlkrZ0ZyAjOIWreJA3Ux6oIjyUVNYkBmR9QIoPKhtt7rKy/1fb1VsrFTuyINzFyu9kEIkwhJk57PUdz9dlDmjNduzCcMZyGf/kNeZkPeurjOtU0p/xhqHfk9mWt7J8s4/pFh+averGnMetCoaroDMz3G0rAQp7riUbNRmdbCNr2ciWuiOquYZTlcubYX3FVgZ/ohsbE7KJjWxiE6cq7Gx5iYP1LqQS6/ZuKIC7yxQ9w4UA0ISrNe38lfWLKjFESZssi2GMnwnbUqlw4dsVjvE/H1gvIpA0ojTLfbchZ7KSK6UVzIJae2YZ1zOeTVAJ67OR76Rr7gqfSCvgQYo5nocAWM6XrE77doS0ejnZxA1cnPeoq3hGvcjZCrer+BqeYD+MTaODdOt6EPOv0F54GFPNf9datbjmSsXFdzFUBDDafq0cG77kZ9CLGQ5Z2z13ibBFQR/lVHwqoQOWJx1fxYXiXdtu8VOaCLdox9MOWtw9d4FxCvoob0X+wITvVVjYye09OdLFpvMHTbjWYZu76S7tlTRSiszfRKkoo8mjhowR7+jW5cWCCbKnjpPxia26SxHltKIbe2gtjVymoNEQlYIOUChoQdazLxXv7tZEc3qqQHjBFdtv5GaGUKWgTxPGcBVPMj3l/A81fujyRfqJEZ9XzMv/FAo6MevZfnaXp/QSrxUQ7rhLrazmBgblnPmryXruYMUadVDSJO9QT6lSMa2ynp/qLsMYxjBuFncEFTkln2kKGHfdpVaWci0DDd8ganKcdXlaHoRsrFfQYJt8hajEOF+e4/xUd4lHxR0l7gr55TTpHulpZNylVn7lSvqn7OytyXn8F0pzJirPQRlPUemvR/soXEg9uXI88+JM99tXkzO4V1qFkKy04Wo+Zg1XK+5o7cNC9sp71HMKJeWde1FJqbdjjvNTfTYectvr4ZeUJ6QKFtm7S738lEjzWqNw7DV5HsqKlK6YFtA81V/L62I55eJ7ZTN34QNgpXRr5+RsrQi+IZK05wfuUzz2CkbmjFyjtsild2rMgVR36a5QwHNsUq5ePMfgFn7M/9IkxDnmtpqGiKG+g6a7Un/OzchUd0l9d1FZifyIxsX6J/47ybLaTuHmXHKI/xifOpic6i6nKxSgs/9jj8R/p2mco8uLbEdpmpRklfQHL5V9PSGFTMr6leSHscYpeRiNWZKSNzgfRRSzGfjaoaq8yniNN6m4RqlUOaRZkOjr8R0szrJr8hha8t2lp8LJN2teLD7J9KMD1ZhED4ZrOkumuzR1QLMgEWU8n0srIUrK1EqyuxykcPKbmheL38p07kgqTKUn+5qaz0kfuW9us2bBojXTuEVaCWGOSf5HsruMUThZd8PxZIqATdxhm/rv05s9TT/epd9dwtXH2dmfhXWDNYVLk+S5l3p3KVXYELU6Y192OumDzK05C4CLbFF9Bv0YZGk0K/3u0spUKcGnlNt5VVoJj2A4CdJZYY4z/43ZKCxofCZ2Z6VZ1NzSO+/183FrWonvSreFJ+nOOvEZfO/IcUYmOkThRJUVZcMzzvoyMXZ9lUW1X7ClK7RM0WOudM/0IGESrFR5wshItyqcqPbo8lnGeScA0EAp2F926WRbh2hcl799vXTf9BhNeVW8e7or3yscY8AvCqepRUYxin4efy/qYaFa9g0WxClNhPAIqWcP8c7rTcmIaamyLewpZbP/I+PcyYlvVGJwGEsLB7pHVG0/dkFQHOAQWFalT7qxVF70RymbvtLg7MMAiCrd/DLFnpG1kGx04kfxTuldyVgcNkLhpO01zH+cwfnxnfAqjpkpYZZMJxkp3iG9LS+lG+wfCicpxV1KEGVRxvm1D3NjtdUdLd2fAkwFT4h3R+9L2lv7z/qn5MFoniX+phDhPU1lwzSqTtFPvCP6QxIxguKz+sW0y2vYSeiNIn1qMDTwMwAxRmqVdDubJXpS4IlygWbq78IlMbMfd5cmCifob/Eal/HJwrr/6oRVfdZVwxQOrTWClBQ6NfH/xN1FZd/yx9qXWJThMOvq/npWY45+uruWKRgWWi+iYEjEsIi7S43CCbNNXOQejuPWuu7+fMp3JyqWMZ9V7lunIIiFQT2U2Tn5H5covOw0MHslIEIFXdICLpUpvmRN0L6aWhTDENhT/BXaL7IibrD43WWXvIZdqBH/JZMYa5ibtkdFNbqX7jLybvyoEJQtBCjwfZI6VCX/COdf+qi+AEYNtQxlMWKUaJRaxHhixMJgSMosFP/d9otUQvzuUqwQD+ULm5tJPS9u/jtfLdsxL7Ej58wwTZ4idi9cDS51+26bKvjWIbZeWmchjNoDQ1Ha4k3lRJwhgL8Tjbgje0L87qLStebb2ji/sFX52L70yHvMtszlHymfDLRV3+Czn7QCnqcbxN1FZRj5N1svvVHjEQuuzvltEecyK2M/tb36Bp2IchqhwqVP7R/jFW5FDW2//E0aN8LsS3S68oPB8R9J29ZnVIo/6nhfpkP87tJRwaB/2N5E6i/7MN7w0yjnMDsROCOVk23XNtio9IBCpzeReCCh/A9j32D/Jt31DOI9xWMvYAMzmcevLGctWwDowut0MTz6f8xwymYBpJj+WX6OQlIpZQPAzLw3ogcdUuAeU7fFDbyVM9+lyrtYSJxh4g85/pHW8Yex/FkwdGNXqnKhqbNKGcr5Wb99kB8c0jaIlEor4CMqIZqRndIIp9aurmaY7WVe4ZCuwUSl9UPiNIOo0iKTxY6pMMU46JlpbgyHkLUIl6OqUw1RyhQOtDuCfjLn2FraRWzlTS5jPzor1azQCd1FnbZQrBSw4ncHlVhBG3bmcMbaVuKe8QULALzEW3zOVAf19zehu6jTGqC3wpiAG3HqI1QznPsMr/84CyyNaYT3mWwcLT7e5B+5F6JK0SHXKRxjlRiLeIVTidKK/dP2+V1ER4qoZFuloOaZhOM/2Qhf9dVpC1GlBZb2z+lnJ8YSXudMIrRkX+6s+3wrq5hjMm1fuamzCoHwYUyd9hBVig8pE7hoKZM4hwjN+bXuM3PLNcIYmNkI3UWddmojYxuQjVO/POnvbqZKUAkMVZiE7qJOC4gqPKh4KRJLH1NnVUmr7VlCd1EnouYu+fJRuskEenIc92tOnIbpwLMRhtPVIary7rJGWsskVvE1T3Aq1ZSyAxOYp3SWE7lhgkF4d9FByV3WSmtpyEa+5WZqqGRo0viZMbrzRlcT4xlOopdW1gE/ErqLDhGYmHd65nVpLZUq0jdHDe7WKmt02tlPMpoeAR1dmyA++ecnKY1SkdekbkxSWiXGFxyQ9du2GiXtyaNpnxzNo3zDGjbysHQ1bWeLtAK+IqriLt58GMvktaybjjsol9GDN7N+14AxxjnWE/hxhvwfjm39CyJRmJb3FnSftJYaXGtYgyWKZ1cr3JC7ZD37IW7Xuo95g2LeFX/I8Ys0ju/Dzy23SreoBhH+ZVgHFcpZrGCyRVmDq39AjBj3a9zLvEEFy8U7oj+kaVRh5F09hJ48MU4wzAeT/0GpiBfqA3vmoBXXZPkmnmHgZBbwuGF8Gq+yRiHwYQgAxQp7WaqkldRiI0NZmvEjUMzGPOfdorwR+mJe42vKaEQFlVTRjBa0ojpp0Pk4jmMXPpE2hTK/0YNvpZXwAVvgjby3oP9Ka6lN+4w6nEx/WuW4k55t+417s1buAHn2EH/U8b5UwDN5D5oq3ZIm6JWlLgu4l9H0pXnKBN3Bjhj3YmkjaDJKvDt6XcrgobwH+TPIXf4IWrO4naPpxU6OmXdbaSNoEk5a5pZSuC3vQb9abwcRRjtuvnwy03d5Zu4Wt5mXpUFUYb2xXxcoPqYVh9kJujNa2gianMMUaRU8TCyqsN7YShJXWa7NWNDiNo/4LDHTFkaECcSzsjXC2QoJ16LI7qe0QoQGlFJGY6poRita046OdKaLQopBO3iZg6RNoEkrFkmr4FGiMFbhmS2Yy7y7u/TEe4B1VV1mW/G3BG8KUaX1xsF0F9WVZFZ5xXe7Zmazm7QKHmQlFCu5S/45cT/i3qbqG3iaLWxmS4psZYNnIzp/yBE8K62Ex5gPahk+ghpJRfrmvsrT9+3zLNRsX8pSpIu4ra3LixBlvYLh/Ds2lpuvha/fmGOkTZCD27jN5JkDeYP1KTKXrtLVsczPEFUKi+Sv1U/qfCatAI95+s59Pq+YOKsn0ww+9b/D/ArFSskogho01QvLey7hEmkVsrKVI5hJp4zPP81xzlFZo/PMpStzpKtkgUVQrHR3actcaV0dYba0AsDF3Bt/ifQkG9iZpWmfTU1KCKLHXLrQj85sR0/6+u6ZZSkUK7271PCutK6OsEBaAQDuY19pFXKwLOPN1cqU9Q9JmUOjNKQJzWlNR05jV+mKKlgiUf18cqO0pg7RRny0JS67SxtCnPXibZBfdohvys3/BN9X2poOsVJagQSv+zKKjH1EaSitggJL4+6Sfzh1oLSmjtCQG6RVSNAosEP1avgjXdWqeEjp7/MeWEFR4AK49TYMgSFFiaspp7xG/lh3XmBD/O7yg8KhwRpKLmKCp5yFAs+e6YcMCUuIxe8uPykc3MxTaSussQ1vsJ20EmkEMwKzKioBq6T5FOJ3F5XdDW2ktbWNY5jvOWcp9Pxm7aQVUGAGxN1lucLBfgozl51mvMwT0koY4s5WNa/SSVoBBWZB/GFM5TGru7S2NjCMSdIqZKWZtAKi+CFizjyI3102KBzcW1pbG7hIWoEc+DV8iD34IejsAoi7y1aFsbEB0tragJe7ZKuCnqjsJa2AAougNtT2a3kPrg5Ac3p5/OWvbGG8z6LG2IVKjiF51sRVBXhf4XA/VCk3uhkq3eYWFjKN/X2xIMRO/LAyeXp8YWncXb5ROKFGWmPL+GGhya68ynpuDcTQiip++CGeGv9P3F1UFrLvIq2xRfz0MHkeM1nFWF/MdlunSloBBRLJR+IxfKMKK8Je5BBpnS1RzCZpFUzwMvcnosYk/6/2/+MyU1pJi5Qqjc3K0o8vgLqQ1zMSua9y4edYlv5oFHP05itpFSxyIC9Jq5CHVvGodLWPKK8rnFIlrbMl8icV9Cuv+OpB07gG30mrkIcV8f/UGnqawin+juThh/EXc7TjeGkVLBJjlLQKOVnA5vgfte6ikpnQ35vE/BZ4VYdHPD0Fq8JXHl3LF+fF2j9q3eVnhZNGSGttiX7SCjjKLdIKWGaCtAI5eKf2j1p3UVlmubevn5H9Fwdfh+N9EEklN795ON7al7V/1CeD+0hhZqVlRswp/7DRF9OU5tlA49onbJ9SzlppFbJqlggvVn+/UEkH3k1ab9M0DrizQENO98X8eHbWcaS0Coasro/FV+8ukxVOHCStuWn8sKPCKnewmsmM8PGA/389mTb48fo/691FZeT7UGnNTeNfR9djb15gBZ9xtKfXX2djqyd7WNKcZHIi68UKJi72aQClxkqxoIOFP9vqec8tttqmfk1l8ljXAwqn+nXP/mofv3eZ431fOgucI61ABkkPiMnu8qrCqf4djp3luwzE1nhOWgGT/MS10iqk8Ha28camCmGVVUL4eZcrxMNSuyf9pY1tmsbitkuWM7IrukXh9Cppa1ogwiRx87slfm6nY8WtVy8pMelS5+nvUaiKn4NcxDhCWgXX+F1aAQs8Fd8Z7wlSnqdS3eV/CqePltbfEqsKZFvvv6QVsMQW9pdWIcFzuVZKtFK6Pfl958jB4jd456WTtJEtM1nchjFiueeBIkpF+CGIWm7+It4Mzso+0ga2gRpxK8aIUZ1byYkKRXg5GqQaUd4UbwjnxLsre/W4WdySeTfbD1cowr+rkuupFG8Ip2RSykoNP1Mlbsub7OlGft+7B9BdvDGckSDF8j9Z2JYZ+4fTN3ytjAeIyUMQMvV+57m1SXawg2fS09qB9JIrhQg7xyl43Yv5i/EFV4vfC+wVb+4XMUu1sDVVYrsqKhmMuCpR3hbv4vbJ36XNaTN3CtvzbDU1lygUNVTaljZRKd7J7ZIZvp8PS6WjuEUVtxSOUyhKJYyfP9hevFnsEa/nF9DlCXGLKo4wqk0QNZe2p22MEm8Y6/JXaSPazLbiFr3YSC2jUEjzlCp0qLRFbWOGtAI2MFdaAZu5XVoB/q1+6PUK3uedNaNWaSL+S2Zdhkkb0VZ6idtzs/GjmHGgvacVqtQoMGt7VUISep3fpBWwlfulFeBiDBfAGLuL0ogzp0nXySZitbmhfMwyaQVsZFcPpN56xvhjY3fZzMMKRY6jVLpWNvGGtAKWCVKcG/ng4uuYb/xFtqjHdyoVO1i6XjbxoSfDwekQnFRPe9FFWgUuzfZFtrFllfR78B57SNfMNprQi+Gc6ssB8q0USatgE1GWe2CRaEd+0j3lXKURhKBNjkEj/i4+LqMrn0obzTbKxW0ZY3l29bKnoHhKqXojpe1rO2uZQB9pJTQJwsxRnI3SCgBXZP8qu7ssrk8Ck4M7A7MZKZkvqeBRaSU0mCWtgG14IfJmjmmUXAmOrlYqvI907RxhLWN8FGTJ38ESk4mJ79d5wexu4RKlJ723hKvnJNvwk/iTtIoEYbteLZ8K2zJn9M9cd5eNXK9QvaGpcf4CxY/U+GIXyWJpBWxEbcWic3xm/lS1tclqgwL+5QDxu0c+8ePgdzbGilryFGvKz1e6SHtpGztMe+aJu0QuaShtIFsZI2jJKmuqj1S6yB3SFnYc+f0XuSRoo5MnCNnR8vKbCsULBSGUUi687C5BiPuWzmgRS/bOp1Y0z/drFFePnSVt3wJmurQCDvCYQOj6tSqBkvLRQdEzG7tePTfx8t3lNmnjOIRKCC875fj8KuW7u8BP/FepcidIW7dgmSOtgEO86/L1ns9/SH53gcuVLnZHwMZn/MN8aQUCwfUqu2pV3OVbxakb/ywaCRbzpRUIBEqPtCruopq8eWLAAsP5gYV0CNB6ZDnuVlsZoeYu0xT3ghdWKm55HqIzP0srEQhusLe4AxVHF8qk6+0QXhwZO0naKA6zjWuWtD2TZ7HihS+UtrFDeM9d5KOlOI177qIYDVmHExQv3Vrayo7gLXf5JoCbvjNxy1004n2rrzYqY53ScRNVpnt8x7ZCOxar+IMiiiimAcWUUEIJpUzPlb46MGzj0phfL2cGS/6s6K29XKmku8jcXQp76tedu4tjYUFUYwl/F7gVsjLusjow4ZDM4Y677KqjktpAcpxVnK50XDcOlLZ0INjPE4Eegs0sPnKucLXd+zFigQkHW4v7d5dXpKssjht3l356KuncXWAjhykeeaa0rX2P2p08xAov87mzF4gqZa6MEbT4lu7fXeRDn0rj/N1FOxG53t0FtipnDbN5WUHBEZTsOeb5kXMdLf8Od6LOfKjouzu4oYxLuH93udi60r4nwhQHLezShvkeiuosDNAKZffdxYaNsAGgmWP2neBeJZ5UVOkiaWvbhsS8S4l0pT3BQIesW+5eFdorK7WjtLVtQsJdukpX2iNc6IBtj3a3CjcoqrWKBtLWtgUJdzlWutIeIco0my37h9vrJaqUVfuLtLVtQcJdNDK7B5yWNlt2kPtVOEpZub7S1rYBmSWWwVt7Z5YhNlrV9s1gKkT4RFG9rQFYEiPjLi2lq+0hrrTNqkIRVzsrK+j/KUsZd9lTutoeoqlNNnU/OmYdFygr6fetsjLuEk5V1mOPu8zRXsdiIw1Yr6yoi+PcDiDhLu9LNq3nsMddtremhLUG2cQeysf+zQ2bBoqD2SqtQsD4GzOlVbhL2bMFhu9spCMn8IGL95Y+0hX2GHbcXTzwhKO6JTlGjDbSylrmXJecRfCF1KNYd5d9pKsQRzVkX4x5vl8H9YIrznK/dDU9iFV3eUG6AvVMUlb6XmlVLeKGsywMwDyV/Vh1l6bSFainnYbaY6SVtUC5K+7SQbqansSau+wlrX4qh2uovrO0sqbp6oKzeKxhPYMVd/FgquGHNdT36+KOEY47S1BjTFvHirt4MNB9Iw31v/bpPkvVbQtm5Y1wUWVWzLtLH/uUsK/brqU3XyoeuwN/Z5ydtnSJAxwu/0hi0lX0LFuZkvSvvZXPu9i7maHP1vB5l/ez2UDU4XtLkEKBOInOwNJcLwfOjfCuRlV6S6urSXNHneUo6er5hApWaVhVO5KYu+jte2smra4WOznoLEqJREMoYqqGVX2wNmJvjer84IVVPMqc7JizrAxIRAPnuVPDqj5ZG/F/GlV630cdZaJj7jJYumo+QWfFnm/WRpQox1GOEeM53+zqWOOQs3wiXTGfcLCWVX20NqKTVsX+Ka2uEurJOnQlKLHYnKWflk19tjZiD63KXSutrhJDHXGWp6Sr5Qu217KpD6On6r0Yj5NWV4krHHCX9tKV8gFdtCw6yZ9rI+7QqqQf0pYW8YXNznKjdJV8QEdNm/o0M04xn2pV8xBphRWottVZ7vBr07pIG02b+vhNUHdZ3FBphRWw6w3m+oDlV3OGFppWVU0G6VG6aVZ3J2mFFbD+BnOJl/b2eZgqrQUvfnkDzsl+ml3J+yvJrL3BnEOFdAV8QmN+0ny0DQTnaXYo7wdYMvsGc6IXNyp5lCrmatl2kpfXHuvxqGa3Gi6tcF4u1azRdEb5PgqOm7RitZZ9f/PV6sM8lGgntPH6bph/KtThacaxNzVU+HMeQJAO2vftammV7aWcOZoGOFNa5Zy8kVf/ddIq+pbttJ0lgEnVKzVHOWJcIa1yDubn1f5DaRV9Sh9tZwnoem79lGm3efYxJr/uX3EqnX2z2tor7KbdR0ZJq+wc+s+kT3oyZkyRRg3uYYi0ur5hX+3+4YP9klbQz5MyhYbSSmdQplWDR6TV9QljtPvGKdIqO08vbaN8QxNppdNopqW/HxaPShPV2oMbl7OllXaHAdqG2UwXaaVT2EZL+17S6nqeCiZr94kJ0kq7xzBt48QcD4mng97oTbjqODcdWKfdGy6TVtpdDjXhMJd5ZpxMx93bSSvrcXYx0RP8sfvWVvY3YaZJHnmLOVb5ITJgs822M8pEL7hJWmkZBpkwlTdmcC9U0nQFzaUV9TRF/CV0Fh36mnIY+V2XKsHhFlAlraanqeZzE23vw6AVdtLdlMNcJzxb/oqSlrtJG9fDDDHV7gUwz5KPbUwZ7n3R/YgDFbVsK21cTxLlMlNtPlJacW/Qmo2mzNdTUOdXlTRcQCua0YRGNAx3uyRopRnwpFb2lVbcOzTlZ1MmPE9sB51enM4YMZZJG9kTDDbVzjEGSCvuLSpM7n+fIzbf/zdNTcNIyMVcYtJZfBwMySlKedmkMU8XefFvoqnlf6QNLEx3FppsX4+nNJIiYmocPkaML+kooO9oLR1vkTavIEWcb7pl/ZUyy2WONGnWGGNcXyJTxHoN/QpoSWAa22kGQKqX+3yU/UcIc1OXMWJ84PrArU6ege2kDStCEeNMt+dZ0sr7g2p+NG1ityPIvKmsmVeWh7rJtswz3ZLDpJX3D6U8YdrMk11d1qiaSuECaZO6Til/Nt2GhXovtsAFFox9rot5CW9W0khiKEISMzuaauXzMIK0GQ6wYHL3tpNVKWkTmICkCnTSSuadLvd4MpiJL9BLsZYuX7s0vXVSXk1+lzaka5SbngyIy5HSFfA3jXnKkvkfdiGLSnFeLV6UNqNLHGSprVZ4LCKDT/mTpUaIcYHjoZf2zKtDP2kjOs6OJpdO1sqdLr5vBpwa0wsoauVghwdy8yeu9Xleq5x05SWL7SO/5S9QNNBe0pgusxxOtJQ/9sDF0kZ0hA5MtNgyv9JJuhJBJP8jTz6ZTB8H9csfTunJgD1wVHOX5Ta5JdwJ5BQteMty83zNIMcezDqwNc/VZ9NC2og20ZTrLbdFjP2lqxFsIpxhQyMtZ7hDMyGVCvt2ekgb0TJtbHGViWHwDzfoyTIbGivGMY48GpXwZN4r+3kjbXf+ZYv1/WwDn1HM2bY0WYyzHMhDHOHqPFf9u7QBTdZrd4uDxbXyWBgI12068I5NLnOFA+Hzcidf2EnaeNqUcDhrbbJ3uNZYCDORlo3lcXayeQvzPjmu5q+xoNam90JmysMeCdtboFRyv21NGWOCrRvMevEOHzODOfzC8qSdl89KG02ZEobxvo323Uu6QiFm8sXkkukc7GiO9ohPNorV2DL6VS/jfHZPDTAlXGxr08a4j14+6db204gjLeyCNJKnaS1dqZBUutowhZkuZxdYwolG7MN/bbbhCnaRrlaIMbuajjmSXT7gONoF/k7ThAN53XbbxRhTUBvjfEeEAx1o9Bgx/sZOAVvxFacph/OeIxa7K9xE7AcacKJDLhPjdY50YcOZO1bqxpkmQ+3mlxfpKl3BEHUquNwxl4mxmsvp6dOQcVE6cLRiBgFzMjUAq+IKkFbc62CniBHjWcayowPLaJwgQkuG86jDFvmMvtIVDTFPF8VMX9ZkE49wNN0ok65uBhGq2JmzHXmNT5c5YVqJINCJ+1zoLHFZwd0cTo3woECEJvThVF5wrd5LGCrdzO4YtjBoyVn8xdUr/syrzGAOC1jCSjYSc/RqERrSgg5sTz8Gu5wPZTrn8p7D9fMIheIuABUcz91iV/+ej5nBLH5kEb+zwVL3ilJKOY1pRkva0IdBYmucn+IaZgpdW4BCcheAEkbwL0/ESfyDpSxjOcv5nd9ZySpWs5q1rGUd69lMCaWUUkpDGlJGGWWU04oubEc3adUTXMdd/CatRIjTRNmTWa491QdTTvbJeGCITezIP8U7nR/lew7wxN05xHXKOZSZ4h3QP/IXtpFushBpOloMg10I8jqDw3tKSC3FDHZlKs9/soXTAhMbLcRWWnB63sB6hST307Pgxk5DtIjQibP5Vbyryso/6OfTJaQhIrTiaD4S77buy7XsEG7pCjFHE/bjOfEu7IZs4iK6ho9eIdYpZVcbYs17VZ7lCFsDRoWEAFHacDAPiHdvu+RtxlITPniFOE1z9uJmVot3eHPyDefRI4z6ZYbwWdUKTdiBfTmRjtKKKLCEp3mTL/mFP6RV8S+hu9hBQ6rZlp3Zi32kVUnjd55iMl/yMxukVQkCobvYTSNa043+DGOQkAbzeJtP+ZYfWch6aXMEi9BdnCNCBW1pS3tq6EZPB/c4/phwkPksZi1bpSseXEJ3cZMiymhCc1rTkS7UUEkllVTRVCkoxjpWsYDZzOMnfmUxy1nJWjayWbpahUPoLl4hQoQoUYooopgom9nCFrayNbGKLcQD/D/e1hj2nGylGAAAACV0RVh0ZGF0ZTpjcmVhdGUAMjAxOS0wMS0wOVQwMzoyMjo0MyswODowME/OqjMAAAAldEVYdGRhdGU6bW9kaWZ5ADIwMTktMDEtMDlUMDM6MjI6NDMrMDg6MDA+kxKPAAAAQ3RFWHRzb2Z0d2FyZQAvdXNyL2xvY2FsL2ltYWdlbWFnaWNrL3NoYXJlL2RvYy9JbWFnZU1hZ2ljay03Ly9pbmRleC5odG1svbV5CgAAAGN0RVh0c3ZnOmNvbW1lbnQAIEdlbmVyYXRvcjogQWRvYmUgSWxsdXN0cmF0b3IgMTYuMC4wLCBTVkcgRXhwb3J0IFBsdWctSW4gLiBTVkcgVmVyc2lvbjogNi4wMCBCdWlsZCAwKSAgcgt1lgAAABh0RVh0VGh1bWI6OkRvY3VtZW50OjpQYWdlcwAxp/+7LwAAABh0RVh0VGh1bWI6OkltYWdlOjpIZWlnaHQANDA35z78eAAAABd0RVh0VGh1bWI6OkltYWdlOjpXaWR0aAA0MDd0z6wlAAAAGXRFWHRUaHVtYjo6TWltZXR5cGUAaW1hZ2UvcG5nP7JWTgAAABd0RVh0VGh1bWI6Ok1UaW1lADE1NDY5NzUzNjOz/E3pAAAAEnRFWHRUaHVtYjo6U2l6ZQAxNDU3M0IgH8GNAAAAYnRFWHRUaHVtYjo6VVJJAGZpbGU6Ly8vaG9tZS93d3dyb290L25ld3NpdGUvd3d3LmVhc3lpY29uLm5ldC9jZG4taW1nLmVhc3lpY29uLmNuL2ZpbGVzLzExNS8xMTU5MTkyLnBuZy+ab4gAAAAASUVORK5CYII=;" vertex="1" parent="1">
          <mxGeometry x="170" y="360" width="247" height="247" as="geometry" />
        </mxCell>
      </root>
    </mxGraphModel>
  </diagram>
</mxfile>
